<?xml version="1.0" encoding="utf-8" standalone="no"?>
<!DOCTYPE svg PUBLIC "-//W3C//DTD SVG 1.1//EN"
  "http://www.w3.org/Graphics/SVG/1.1/DTD/svg11.dtd">
<svg xmlns:xlink="http://www.w3.org/1999/xlink" width="713.955469pt" height="215.28pt" viewBox="0 0 713.955469 215.28" xmlns="http://www.w3.org/2000/svg" version="1.1">
 <metadata>
  <rdf:RDF xmlns:dc="http://purl.org/dc/elements/1.1/" xmlns:cc="http://creativecommons.org/ns#" xmlns:rdf="http://www.w3.org/1999/02/22-rdf-syntax-ns#">
   <cc:Work>
    <dc:type rdf:resource="http://purl.org/dc/dcmitype/StillImage"/>
    <dc:date>2022-05-10T22:24:55.807421</dc:date>
    <dc:format>image/svg+xml</dc:format>
    <dc:creator>
     <cc:Agent>
      <dc:title>Matplotlib v3.5.2, https://matplotlib.org/</dc:title>
     </cc:Agent>
    </dc:creator>
   </cc:Work>
  </rdf:RDF>
 </metadata>
 <defs>
  <style type="text/css">*{stroke-linejoin: round; stroke-linecap: butt}</style>
 </defs>
 <g id="figure_1">
  <g id="patch_1">
   <path d="M 0 215.28 
L 713.955469 215.28 
L 713.955469 0 
L 0 0 
L 0 215.28 
z
" style="fill: none"/>
  </g>
  <g id="axes_1">
   <g id="patch_2">
    <path d="M 43.032031 208.08 
L 197.907031 208.08 
L 197.907031 63.08 
L 43.032031 63.08 
z
" style="fill: #ffffff"/>
   </g>
   <g id="patch_3">
    <path d="M 43.032031 201.489091 
L 66.18136 201.489091 
L 66.18136 173.737895 
L 43.032031 173.737895 
z
" clip-path="url(#p04dc480222)" style="fill: #3cb371; opacity: 0.8"/>
   </g>
   <g id="patch_4">
    <path d="M 43.032031 166.800096 
L 71.730955 166.800096 
L 71.730955 139.0489 
L 43.032031 139.0489 
z
" clip-path="url(#p04dc480222)" style="fill: #3cb371; opacity: 0.8"/>
   </g>
   <g id="patch_5">
    <path d="M 43.032031 132.1111 
L 75.007042 132.1111 
L 75.007042 104.359904 
L 43.032031 104.359904 
z
" clip-path="url(#p04dc480222)" style="fill: #3cb371; opacity: 0.8"/>
   </g>
   <g id="patch_6">
    <path d="M 43.032031 97.422105 
L 89.900308 97.422105 
L 89.900308 69.670909 
L 43.032031 69.670909 
z
" clip-path="url(#p04dc480222)" style="fill: #3cb371; opacity: 0.8"/>
   </g>
   <g id="matplotlib.axis_1">
    <g id="xtick_1"/>
    <g id="xtick_2"/>
    <g id="xtick_3"/>
    <g id="xtick_4"/>
   </g>
   <g id="matplotlib.axis_2">
    <g id="ytick_1">
     <g id="line2d_1">
      <defs>
       <path id="mc96adf423a" d="M 0 0 
L -3.5 0 
" style="stroke: #000000; stroke-width: 0.8"/>
      </defs>
      <g>
       <use xlink:href="#mc96adf423a" x="43.032031" y="187.613493" style="stroke: #000000; stroke-width: 0.8"/>
      </g>
     </g>
     <g id="text_1">
      <!-- X [↑] -->
      <g transform="translate(7.2 191.792633)scale(0.11 -0.11)">
       <defs>
        <path id="DejaVuSans-58" d="M 403 4666 
L 1081 4666 
L 2241 2931 
L 3406 4666 
L 4084 4666 
L 2584 2425 
L 4184 0 
L 3506 0 
L 2194 1984 
L 872 0 
L 191 0 
L 1856 2491 
L 403 4666 
z
" transform="scale(0.015625)"/>
        <path id="DejaVuSans-20" transform="scale(0.015625)"/>
        <path id="DejaVuSans-5b" d="M 550 4863 
L 1875 4863 
L 1875 4416 
L 1125 4416 
L 1125 -397 
L 1875 -397 
L 1875 -844 
L 550 -844 
L 550 4863 
z
" transform="scale(0.015625)"/>
        <path id="DejaVuSans-2191" d="M 2541 4688 
L 2822 4688 
L 4047 3456 
L 3672 3081 
L 2947 3813 
L 2947 0 
L 2416 0 
L 2416 3813 
L 1684 3081 
L 1309 3456 
L 2541 4688 
z
" transform="scale(0.015625)"/>
        <path id="DejaVuSans-5d" d="M 1947 4863 
L 1947 -844 
L 622 -844 
L 622 -397 
L 1369 -397 
L 1369 4416 
L 622 4416 
L 622 4863 
L 1947 4863 
z
" transform="scale(0.015625)"/>
       </defs>
       <use xlink:href="#DejaVuSans-58"/>
       <use xlink:href="#DejaVuSans-20" x="68.505859"/>
       <use xlink:href="#DejaVuSans-5b" x="100.292969"/>
       <use xlink:href="#DejaVuSans-2191" x="139.306641"/>
       <use xlink:href="#DejaVuSans-5d" x="223.095703"/>
      </g>
     </g>
    </g>
    <g id="ytick_2">
     <g id="line2d_2">
      <g>
       <use xlink:href="#mc96adf423a" x="43.032031" y="152.924498" style="stroke: #000000; stroke-width: 0.8"/>
      </g>
     </g>
     <g id="text_2">
      <!-- X [↓] -->
      <g transform="translate(7.2 157.103638)scale(0.11 -0.11)">
       <defs>
        <path id="DejaVuSans-2193" d="M 2822 -22 
L 2541 -22 
L 1309 1209 
L 1684 1584 
L 2416 853 
L 2416 4666 
L 2947 4666 
L 2947 853 
L 3672 1584 
L 4047 1209 
L 2822 -22 
z
" transform="scale(0.015625)"/>
       </defs>
       <use xlink:href="#DejaVuSans-58"/>
       <use xlink:href="#DejaVuSans-20" x="68.505859"/>
       <use xlink:href="#DejaVuSans-5b" x="100.292969"/>
       <use xlink:href="#DejaVuSans-2193" x="139.306641"/>
       <use xlink:href="#DejaVuSans-5d" x="223.095703"/>
      </g>
     </g>
    </g>
    <g id="ytick_3">
     <g id="line2d_3">
      <g>
       <use xlink:href="#mc96adf423a" x="43.032031" y="118.235502" style="stroke: #000000; stroke-width: 0.8"/>
      </g>
     </g>
     <g id="text_3">
      <!-- Y [→] -->
      <g transform="translate(8.016406 122.414643)scale(0.11 -0.11)">
       <defs>
        <path id="DejaVuSans-59" d="M -13 4666 
L 666 4666 
L 1959 2747 
L 3244 4666 
L 3922 4666 
L 2272 2222 
L 2272 0 
L 1638 0 
L 1638 2222 
L -13 4666 
z
" transform="scale(0.015625)"/>
        <path id="DejaVuSans-2192" d="M 5050 2147 
L 5050 1866 
L 3822 638 
L 3447 1013 
L 4175 1741 
L 366 1741 
L 366 2272 
L 4175 2272 
L 3447 3000 
L 3822 3375 
L 5050 2147 
z
" transform="scale(0.015625)"/>
       </defs>
       <use xlink:href="#DejaVuSans-59"/>
       <use xlink:href="#DejaVuSans-20" x="61.083984"/>
       <use xlink:href="#DejaVuSans-5b" x="92.871094"/>
       <use xlink:href="#DejaVuSans-2192" x="131.884766"/>
       <use xlink:href="#DejaVuSans-5d" x="215.673828"/>
      </g>
     </g>
    </g>
    <g id="ytick_4">
     <g id="line2d_4">
      <g>
       <use xlink:href="#mc96adf423a" x="43.032031" y="83.546507" style="stroke: #000000; stroke-width: 0.8"/>
      </g>
     </g>
     <g id="text_4">
      <!-- Y [←] -->
      <g transform="translate(8.016406 87.725648)scale(0.11 -0.11)">
       <defs>
        <path id="DejaVuSans-2190" d="M 313 1866 
L 313 2147 
L 1541 3375 
L 1916 3000 
L 1188 2272 
L 4997 2272 
L 4997 1741 
L 1188 1741 
L 1916 1013 
L 1541 638 
L 313 1866 
z
" transform="scale(0.015625)"/>
       </defs>
       <use xlink:href="#DejaVuSans-59"/>
       <use xlink:href="#DejaVuSans-20" x="61.083984"/>
       <use xlink:href="#DejaVuSans-5b" x="92.871094"/>
       <use xlink:href="#DejaVuSans-2190" x="131.884766"/>
       <use xlink:href="#DejaVuSans-5d" x="215.673828"/>
      </g>
     </g>
    </g>
   </g>
   <g id="LineCollection_1">
    <path d="M 62.920364 187.613493 
L 69.442356 187.613493 
" clip-path="url(#p04dc480222)" style="fill: none; stroke: #000000; stroke-width: 1.5"/>
    <path d="M 65.167077 152.924498 
L 78.294833 152.924498 
" clip-path="url(#p04dc480222)" style="fill: none; stroke: #000000; stroke-width: 1.5"/>
    <path d="M 63.819843 118.235502 
L 86.19424 118.235502 
" clip-path="url(#p04dc480222)" style="fill: none; stroke: #000000; stroke-width: 1.5"/>
    <path d="M 75.630138 83.546507 
L 104.170478 83.546507 
" clip-path="url(#p04dc480222)" style="fill: none; stroke: #000000; stroke-width: 1.5"/>
   </g>
   <g id="line2d_5"/>
   <g id="line2d_6"/>
   <g id="line2d_7"/>
   <g id="line2d_8"/>
   <g id="line2d_9"/>
   <g id="line2d_10"/>
   <g id="patch_7">
    <path d="M 43.032031 208.08 
L 43.032031 63.08 
" style="fill: none; stroke: #000000; stroke-width: 0.8; stroke-linejoin: miter; stroke-linecap: square"/>
   </g>
   <g id="patch_8">
    <path d="M 197.907031 208.08 
L 197.907031 63.08 
" style="fill: none; stroke: #000000; stroke-width: 0.8; stroke-linejoin: miter; stroke-linecap: square"/>
   </g>
   <g id="patch_9">
    <path d="M 43.032031 208.08 
L 197.907031 208.08 
" style="fill: none; stroke: #000000; stroke-width: 0.8; stroke-linejoin: miter; stroke-linecap: square"/>
   </g>
   <g id="patch_10">
    <path d="M 43.032031 63.08 
L 197.907031 63.08 
" style="fill: none; stroke: #000000; stroke-width: 0.8; stroke-linejoin: miter; stroke-linecap: square"/>
   </g>
   <g id="text_5">
    <!-- 2.35 -->
    <g transform="translate(69.442356 189.958962)scale(0.085 -0.085)">
     <defs>
      <path id="DejaVuSans-32" d="M 1228 531 
L 3431 531 
L 3431 0 
L 469 0 
L 469 531 
Q 828 903 1448 1529 
Q 2069 2156 2228 2338 
Q 2531 2678 2651 2914 
Q 2772 3150 2772 3378 
Q 2772 3750 2511 3984 
Q 2250 4219 1831 4219 
Q 1534 4219 1204 4116 
Q 875 4013 500 3803 
L 500 4441 
Q 881 4594 1212 4672 
Q 1544 4750 1819 4750 
Q 2544 4750 2975 4387 
Q 3406 4025 3406 3419 
Q 3406 3131 3298 2873 
Q 3191 2616 2906 2266 
Q 2828 2175 2409 1742 
Q 1991 1309 1228 531 
z
" transform="scale(0.015625)"/>
      <path id="DejaVuSans-2e" d="M 684 794 
L 1344 794 
L 1344 0 
L 684 0 
L 684 794 
z
" transform="scale(0.015625)"/>
      <path id="DejaVuSans-33" d="M 2597 2516 
Q 3050 2419 3304 2112 
Q 3559 1806 3559 1356 
Q 3559 666 3084 287 
Q 2609 -91 1734 -91 
Q 1441 -91 1130 -33 
Q 819 25 488 141 
L 488 750 
Q 750 597 1062 519 
Q 1375 441 1716 441 
Q 2309 441 2620 675 
Q 2931 909 2931 1356 
Q 2931 1769 2642 2001 
Q 2353 2234 1838 2234 
L 1294 2234 
L 1294 2753 
L 1863 2753 
Q 2328 2753 2575 2939 
Q 2822 3125 2822 3475 
Q 2822 3834 2567 4026 
Q 2313 4219 1838 4219 
Q 1578 4219 1281 4162 
Q 984 4106 628 3988 
L 628 4550 
Q 988 4650 1302 4700 
Q 1616 4750 1894 4750 
Q 2613 4750 3031 4423 
Q 3450 4097 3450 3541 
Q 3450 3153 3228 2886 
Q 3006 2619 2597 2516 
z
" transform="scale(0.015625)"/>
      <path id="DejaVuSans-35" d="M 691 4666 
L 3169 4666 
L 3169 4134 
L 1269 4134 
L 1269 2991 
Q 1406 3038 1543 3061 
Q 1681 3084 1819 3084 
Q 2600 3084 3056 2656 
Q 3513 2228 3513 1497 
Q 3513 744 3044 326 
Q 2575 -91 1722 -91 
Q 1428 -91 1123 -41 
Q 819 9 494 109 
L 494 744 
Q 775 591 1075 516 
Q 1375 441 1709 441 
Q 2250 441 2565 725 
Q 2881 1009 2881 1497 
Q 2881 1984 2565 2268 
Q 2250 2553 1709 2553 
Q 1456 2553 1204 2497 
Q 953 2441 691 2322 
L 691 4666 
z
" transform="scale(0.015625)"/>
     </defs>
     <use xlink:href="#DejaVuSans-32"/>
     <use xlink:href="#DejaVuSans-2e" x="63.623047"/>
     <use xlink:href="#DejaVuSans-33" x="95.410156"/>
     <use xlink:href="#DejaVuSans-35" x="159.033203"/>
    </g>
   </g>
   <g id="text_6">
    <!-- 2.92 -->
    <g transform="translate(78.294833 155.269966)scale(0.085 -0.085)">
     <defs>
      <path id="DejaVuSans-39" d="M 703 97 
L 703 672 
Q 941 559 1184 500 
Q 1428 441 1663 441 
Q 2288 441 2617 861 
Q 2947 1281 2994 2138 
Q 2813 1869 2534 1725 
Q 2256 1581 1919 1581 
Q 1219 1581 811 2004 
Q 403 2428 403 3163 
Q 403 3881 828 4315 
Q 1253 4750 1959 4750 
Q 2769 4750 3195 4129 
Q 3622 3509 3622 2328 
Q 3622 1225 3098 567 
Q 2575 -91 1691 -91 
Q 1453 -91 1209 -44 
Q 966 3 703 97 
z
M 1959 2075 
Q 2384 2075 2632 2365 
Q 2881 2656 2881 3163 
Q 2881 3666 2632 3958 
Q 2384 4250 1959 4250 
Q 1534 4250 1286 3958 
Q 1038 3666 1038 3163 
Q 1038 2656 1286 2365 
Q 1534 2075 1959 2075 
z
" transform="scale(0.015625)"/>
     </defs>
     <use xlink:href="#DejaVuSans-32"/>
     <use xlink:href="#DejaVuSans-2e" x="63.623047"/>
     <use xlink:href="#DejaVuSans-39" x="95.410156"/>
     <use xlink:href="#DejaVuSans-32" x="159.033203"/>
    </g>
   </g>
   <g id="text_7">
    <!-- 3.25 -->
    <g transform="translate(86.19424 120.580971)scale(0.085 -0.085)">
     <use xlink:href="#DejaVuSans-33"/>
     <use xlink:href="#DejaVuSans-2e" x="63.623047"/>
     <use xlink:href="#DejaVuSans-32" x="95.410156"/>
     <use xlink:href="#DejaVuSans-35" x="159.033203"/>
    </g>
   </g>
   <g id="text_8">
    <!-- 4.76 -->
    <g transform="translate(104.170478 85.891976)scale(0.085 -0.085)">
     <defs>
      <path id="DejaVuSans-34" d="M 2419 4116 
L 825 1625 
L 2419 1625 
L 2419 4116 
z
M 2253 4666 
L 3047 4666 
L 3047 1625 
L 3713 1625 
L 3713 1100 
L 3047 1100 
L 3047 0 
L 2419 0 
L 2419 1100 
L 313 1100 
L 313 1709 
L 2253 4666 
z
" transform="scale(0.015625)"/>
      <path id="DejaVuSans-37" d="M 525 4666 
L 3525 4666 
L 3525 4397 
L 1831 0 
L 1172 0 
L 2766 4134 
L 525 4134 
L 525 4666 
z
" transform="scale(0.015625)"/>
      <path id="DejaVuSans-36" d="M 2113 2584 
Q 1688 2584 1439 2293 
Q 1191 2003 1191 1497 
Q 1191 994 1439 701 
Q 1688 409 2113 409 
Q 2538 409 2786 701 
Q 3034 994 3034 1497 
Q 3034 2003 2786 2293 
Q 2538 2584 2113 2584 
z
M 3366 4563 
L 3366 3988 
Q 3128 4100 2886 4159 
Q 2644 4219 2406 4219 
Q 1781 4219 1451 3797 
Q 1122 3375 1075 2522 
Q 1259 2794 1537 2939 
Q 1816 3084 2150 3084 
Q 2853 3084 3261 2657 
Q 3669 2231 3669 1497 
Q 3669 778 3244 343 
Q 2819 -91 2113 -91 
Q 1303 -91 875 529 
Q 447 1150 447 2328 
Q 447 3434 972 4092 
Q 1497 4750 2381 4750 
Q 2619 4750 2861 4703 
Q 3103 4656 3366 4563 
z
" transform="scale(0.015625)"/>
     </defs>
     <use xlink:href="#DejaVuSans-34"/>
     <use xlink:href="#DejaVuSans-2e" x="63.623047"/>
     <use xlink:href="#DejaVuSans-37" x="95.410156"/>
     <use xlink:href="#DejaVuSans-36" x="159.033203"/>
    </g>
   </g>
   <g id="text_9">
    <!-- Stepen naspram -->
    <g transform="translate(79.248437 45.882187)scale(0.1 -0.1)">
     <defs>
      <path id="DejaVuSans-53" d="M 3425 4513 
L 3425 3897 
Q 3066 4069 2747 4153 
Q 2428 4238 2131 4238 
Q 1616 4238 1336 4038 
Q 1056 3838 1056 3469 
Q 1056 3159 1242 3001 
Q 1428 2844 1947 2747 
L 2328 2669 
Q 3034 2534 3370 2195 
Q 3706 1856 3706 1288 
Q 3706 609 3251 259 
Q 2797 -91 1919 -91 
Q 1588 -91 1214 -16 
Q 841 59 441 206 
L 441 856 
Q 825 641 1194 531 
Q 1563 422 1919 422 
Q 2459 422 2753 634 
Q 3047 847 3047 1241 
Q 3047 1584 2836 1778 
Q 2625 1972 2144 2069 
L 1759 2144 
Q 1053 2284 737 2584 
Q 422 2884 422 3419 
Q 422 4038 858 4394 
Q 1294 4750 2059 4750 
Q 2388 4750 2728 4690 
Q 3069 4631 3425 4513 
z
" transform="scale(0.015625)"/>
      <path id="DejaVuSans-74" d="M 1172 4494 
L 1172 3500 
L 2356 3500 
L 2356 3053 
L 1172 3053 
L 1172 1153 
Q 1172 725 1289 603 
Q 1406 481 1766 481 
L 2356 481 
L 2356 0 
L 1766 0 
Q 1100 0 847 248 
Q 594 497 594 1153 
L 594 3053 
L 172 3053 
L 172 3500 
L 594 3500 
L 594 4494 
L 1172 4494 
z
" transform="scale(0.015625)"/>
      <path id="DejaVuSans-65" d="M 3597 1894 
L 3597 1613 
L 953 1613 
Q 991 1019 1311 708 
Q 1631 397 2203 397 
Q 2534 397 2845 478 
Q 3156 559 3463 722 
L 3463 178 
Q 3153 47 2828 -22 
Q 2503 -91 2169 -91 
Q 1331 -91 842 396 
Q 353 884 353 1716 
Q 353 2575 817 3079 
Q 1281 3584 2069 3584 
Q 2775 3584 3186 3129 
Q 3597 2675 3597 1894 
z
M 3022 2063 
Q 3016 2534 2758 2815 
Q 2500 3097 2075 3097 
Q 1594 3097 1305 2825 
Q 1016 2553 972 2059 
L 3022 2063 
z
" transform="scale(0.015625)"/>
      <path id="DejaVuSans-70" d="M 1159 525 
L 1159 -1331 
L 581 -1331 
L 581 3500 
L 1159 3500 
L 1159 2969 
Q 1341 3281 1617 3432 
Q 1894 3584 2278 3584 
Q 2916 3584 3314 3078 
Q 3713 2572 3713 1747 
Q 3713 922 3314 415 
Q 2916 -91 2278 -91 
Q 1894 -91 1617 61 
Q 1341 213 1159 525 
z
M 3116 1747 
Q 3116 2381 2855 2742 
Q 2594 3103 2138 3103 
Q 1681 3103 1420 2742 
Q 1159 2381 1159 1747 
Q 1159 1113 1420 752 
Q 1681 391 2138 391 
Q 2594 391 2855 752 
Q 3116 1113 3116 1747 
z
" transform="scale(0.015625)"/>
      <path id="DejaVuSans-6e" d="M 3513 2113 
L 3513 0 
L 2938 0 
L 2938 2094 
Q 2938 2591 2744 2837 
Q 2550 3084 2163 3084 
Q 1697 3084 1428 2787 
Q 1159 2491 1159 1978 
L 1159 0 
L 581 0 
L 581 3500 
L 1159 3500 
L 1159 2956 
Q 1366 3272 1645 3428 
Q 1925 3584 2291 3584 
Q 2894 3584 3203 3211 
Q 3513 2838 3513 2113 
z
" transform="scale(0.015625)"/>
      <path id="DejaVuSans-61" d="M 2194 1759 
Q 1497 1759 1228 1600 
Q 959 1441 959 1056 
Q 959 750 1161 570 
Q 1363 391 1709 391 
Q 2188 391 2477 730 
Q 2766 1069 2766 1631 
L 2766 1759 
L 2194 1759 
z
M 3341 1997 
L 3341 0 
L 2766 0 
L 2766 531 
Q 2569 213 2275 61 
Q 1981 -91 1556 -91 
Q 1019 -91 701 211 
Q 384 513 384 1019 
Q 384 1609 779 1909 
Q 1175 2209 1959 2209 
L 2766 2209 
L 2766 2266 
Q 2766 2663 2505 2880 
Q 2244 3097 1772 3097 
Q 1472 3097 1187 3025 
Q 903 2953 641 2809 
L 641 3341 
Q 956 3463 1253 3523 
Q 1550 3584 1831 3584 
Q 2591 3584 2966 3190 
Q 3341 2797 3341 1997 
z
" transform="scale(0.015625)"/>
      <path id="DejaVuSans-73" d="M 2834 3397 
L 2834 2853 
Q 2591 2978 2328 3040 
Q 2066 3103 1784 3103 
Q 1356 3103 1142 2972 
Q 928 2841 928 2578 
Q 928 2378 1081 2264 
Q 1234 2150 1697 2047 
L 1894 2003 
Q 2506 1872 2764 1633 
Q 3022 1394 3022 966 
Q 3022 478 2636 193 
Q 2250 -91 1575 -91 
Q 1294 -91 989 -36 
Q 684 19 347 128 
L 347 722 
Q 666 556 975 473 
Q 1284 391 1588 391 
Q 1994 391 2212 530 
Q 2431 669 2431 922 
Q 2431 1156 2273 1281 
Q 2116 1406 1581 1522 
L 1381 1569 
Q 847 1681 609 1914 
Q 372 2147 372 2553 
Q 372 3047 722 3315 
Q 1072 3584 1716 3584 
Q 2034 3584 2315 3537 
Q 2597 3491 2834 3397 
z
" transform="scale(0.015625)"/>
      <path id="DejaVuSans-72" d="M 2631 2963 
Q 2534 3019 2420 3045 
Q 2306 3072 2169 3072 
Q 1681 3072 1420 2755 
Q 1159 2438 1159 1844 
L 1159 0 
L 581 0 
L 581 3500 
L 1159 3500 
L 1159 2956 
Q 1341 3275 1631 3429 
Q 1922 3584 2338 3584 
Q 2397 3584 2469 3576 
Q 2541 3569 2628 3553 
L 2631 2963 
z
" transform="scale(0.015625)"/>
      <path id="DejaVuSans-6d" d="M 3328 2828 
Q 3544 3216 3844 3400 
Q 4144 3584 4550 3584 
Q 5097 3584 5394 3201 
Q 5691 2819 5691 2113 
L 5691 0 
L 5113 0 
L 5113 2094 
Q 5113 2597 4934 2840 
Q 4756 3084 4391 3084 
Q 3944 3084 3684 2787 
Q 3425 2491 3425 1978 
L 3425 0 
L 2847 0 
L 2847 2094 
Q 2847 2600 2669 2842 
Q 2491 3084 2119 3084 
Q 1678 3084 1418 2786 
Q 1159 2488 1159 1978 
L 1159 0 
L 581 0 
L 581 3500 
L 1159 3500 
L 1159 2956 
Q 1356 3278 1631 3431 
Q 1906 3584 2284 3584 
Q 2666 3584 2933 3390 
Q 3200 3197 3328 2828 
z
" transform="scale(0.015625)"/>
     </defs>
     <use xlink:href="#DejaVuSans-53"/>
     <use xlink:href="#DejaVuSans-74" x="63.476562"/>
     <use xlink:href="#DejaVuSans-65" x="102.685547"/>
     <use xlink:href="#DejaVuSans-70" x="164.208984"/>
     <use xlink:href="#DejaVuSans-65" x="227.685547"/>
     <use xlink:href="#DejaVuSans-6e" x="289.208984"/>
     <use xlink:href="#DejaVuSans-20" x="352.587891"/>
     <use xlink:href="#DejaVuSans-6e" x="384.375"/>
     <use xlink:href="#DejaVuSans-61" x="447.753906"/>
     <use xlink:href="#DejaVuSans-73" x="509.033203"/>
     <use xlink:href="#DejaVuSans-70" x="561.132812"/>
     <use xlink:href="#DejaVuSans-72" x="624.609375"/>
     <use xlink:href="#DejaVuSans-61" x="665.722656"/>
     <use xlink:href="#DejaVuSans-6d" x="727.001953"/>
    </g>
    <!-- prof. regiona &gt;=5 (M_IntAct) -->
    <g transform="translate(48.741406 57.08)scale(0.1 -0.1)">
     <defs>
      <path id="DejaVuSans-6f" d="M 1959 3097 
Q 1497 3097 1228 2736 
Q 959 2375 959 1747 
Q 959 1119 1226 758 
Q 1494 397 1959 397 
Q 2419 397 2687 759 
Q 2956 1122 2956 1747 
Q 2956 2369 2687 2733 
Q 2419 3097 1959 3097 
z
M 1959 3584 
Q 2709 3584 3137 3096 
Q 3566 2609 3566 1747 
Q 3566 888 3137 398 
Q 2709 -91 1959 -91 
Q 1206 -91 779 398 
Q 353 888 353 1747 
Q 353 2609 779 3096 
Q 1206 3584 1959 3584 
z
" transform="scale(0.015625)"/>
      <path id="DejaVuSans-66" d="M 2375 4863 
L 2375 4384 
L 1825 4384 
Q 1516 4384 1395 4259 
Q 1275 4134 1275 3809 
L 1275 3500 
L 2222 3500 
L 2222 3053 
L 1275 3053 
L 1275 0 
L 697 0 
L 697 3053 
L 147 3053 
L 147 3500 
L 697 3500 
L 697 3744 
Q 697 4328 969 4595 
Q 1241 4863 1831 4863 
L 2375 4863 
z
" transform="scale(0.015625)"/>
      <path id="DejaVuSans-67" d="M 2906 1791 
Q 2906 2416 2648 2759 
Q 2391 3103 1925 3103 
Q 1463 3103 1205 2759 
Q 947 2416 947 1791 
Q 947 1169 1205 825 
Q 1463 481 1925 481 
Q 2391 481 2648 825 
Q 2906 1169 2906 1791 
z
M 3481 434 
Q 3481 -459 3084 -895 
Q 2688 -1331 1869 -1331 
Q 1566 -1331 1297 -1286 
Q 1028 -1241 775 -1147 
L 775 -588 
Q 1028 -725 1275 -790 
Q 1522 -856 1778 -856 
Q 2344 -856 2625 -561 
Q 2906 -266 2906 331 
L 2906 616 
Q 2728 306 2450 153 
Q 2172 0 1784 0 
Q 1141 0 747 490 
Q 353 981 353 1791 
Q 353 2603 747 3093 
Q 1141 3584 1784 3584 
Q 2172 3584 2450 3431 
Q 2728 3278 2906 2969 
L 2906 3500 
L 3481 3500 
L 3481 434 
z
" transform="scale(0.015625)"/>
      <path id="DejaVuSans-69" d="M 603 3500 
L 1178 3500 
L 1178 0 
L 603 0 
L 603 3500 
z
M 603 4863 
L 1178 4863 
L 1178 4134 
L 603 4134 
L 603 4863 
z
" transform="scale(0.015625)"/>
      <path id="DejaVuSans-3e" d="M 678 3150 
L 678 3719 
L 4684 2266 
L 4684 1747 
L 678 294 
L 678 863 
L 3897 2003 
L 678 3150 
z
" transform="scale(0.015625)"/>
      <path id="DejaVuSans-3d" d="M 678 2906 
L 4684 2906 
L 4684 2381 
L 678 2381 
L 678 2906 
z
M 678 1631 
L 4684 1631 
L 4684 1100 
L 678 1100 
L 678 1631 
z
" transform="scale(0.015625)"/>
      <path id="DejaVuSans-28" d="M 1984 4856 
Q 1566 4138 1362 3434 
Q 1159 2731 1159 2009 
Q 1159 1288 1364 580 
Q 1569 -128 1984 -844 
L 1484 -844 
Q 1016 -109 783 600 
Q 550 1309 550 2009 
Q 550 2706 781 3412 
Q 1013 4119 1484 4856 
L 1984 4856 
z
" transform="scale(0.015625)"/>
      <path id="DejaVuSans-4d" d="M 628 4666 
L 1569 4666 
L 2759 1491 
L 3956 4666 
L 4897 4666 
L 4897 0 
L 4281 0 
L 4281 4097 
L 3078 897 
L 2444 897 
L 1241 4097 
L 1241 0 
L 628 0 
L 628 4666 
z
" transform="scale(0.015625)"/>
      <path id="DejaVuSans-5f" d="M 3263 -1063 
L 3263 -1509 
L -63 -1509 
L -63 -1063 
L 3263 -1063 
z
" transform="scale(0.015625)"/>
      <path id="DejaVuSans-49" d="M 628 4666 
L 1259 4666 
L 1259 0 
L 628 0 
L 628 4666 
z
" transform="scale(0.015625)"/>
      <path id="DejaVuSans-41" d="M 2188 4044 
L 1331 1722 
L 3047 1722 
L 2188 4044 
z
M 1831 4666 
L 2547 4666 
L 4325 0 
L 3669 0 
L 3244 1197 
L 1141 1197 
L 716 0 
L 50 0 
L 1831 4666 
z
" transform="scale(0.015625)"/>
      <path id="DejaVuSans-63" d="M 3122 3366 
L 3122 2828 
Q 2878 2963 2633 3030 
Q 2388 3097 2138 3097 
Q 1578 3097 1268 2742 
Q 959 2388 959 1747 
Q 959 1106 1268 751 
Q 1578 397 2138 397 
Q 2388 397 2633 464 
Q 2878 531 3122 666 
L 3122 134 
Q 2881 22 2623 -34 
Q 2366 -91 2075 -91 
Q 1284 -91 818 406 
Q 353 903 353 1747 
Q 353 2603 823 3093 
Q 1294 3584 2113 3584 
Q 2378 3584 2631 3529 
Q 2884 3475 3122 3366 
z
" transform="scale(0.015625)"/>
      <path id="DejaVuSans-29" d="M 513 4856 
L 1013 4856 
Q 1481 4119 1714 3412 
Q 1947 2706 1947 2009 
Q 1947 1309 1714 600 
Q 1481 -109 1013 -844 
L 513 -844 
Q 928 -128 1133 580 
Q 1338 1288 1338 2009 
Q 1338 2731 1133 3434 
Q 928 4138 513 4856 
z
" transform="scale(0.015625)"/>
     </defs>
     <use xlink:href="#DejaVuSans-70"/>
     <use xlink:href="#DejaVuSans-72" x="63.476562"/>
     <use xlink:href="#DejaVuSans-6f" x="102.339844"/>
     <use xlink:href="#DejaVuSans-66" x="163.521484"/>
     <use xlink:href="#DejaVuSans-2e" x="191.476562"/>
     <use xlink:href="#DejaVuSans-20" x="223.263672"/>
     <use xlink:href="#DejaVuSans-72" x="255.050781"/>
     <use xlink:href="#DejaVuSans-65" x="293.914062"/>
     <use xlink:href="#DejaVuSans-67" x="355.4375"/>
     <use xlink:href="#DejaVuSans-69" x="418.914062"/>
     <use xlink:href="#DejaVuSans-6f" x="446.697266"/>
     <use xlink:href="#DejaVuSans-6e" x="507.878906"/>
     <use xlink:href="#DejaVuSans-61" x="571.257812"/>
     <use xlink:href="#DejaVuSans-20" x="632.537109"/>
     <use xlink:href="#DejaVuSans-3e" x="664.324219"/>
     <use xlink:href="#DejaVuSans-3d" x="748.113281"/>
     <use xlink:href="#DejaVuSans-35" x="831.902344"/>
     <use xlink:href="#DejaVuSans-20" x="895.525391"/>
     <use xlink:href="#DejaVuSans-28" x="927.3125"/>
     <use xlink:href="#DejaVuSans-4d" x="966.326172"/>
     <use xlink:href="#DejaVuSans-5f" x="1052.605469"/>
     <use xlink:href="#DejaVuSans-49" x="1102.605469"/>
     <use xlink:href="#DejaVuSans-6e" x="1132.097656"/>
     <use xlink:href="#DejaVuSans-74" x="1195.476562"/>
     <use xlink:href="#DejaVuSans-41" x="1234.685547"/>
     <use xlink:href="#DejaVuSans-63" x="1301.34375"/>
     <use xlink:href="#DejaVuSans-74" x="1356.324219"/>
     <use xlink:href="#DejaVuSans-29" x="1395.533203"/>
    </g>
   </g>
   <g id="legend_1">
    <g id="patch_11">
     <path d="M 127.149844 203.83 
L 191.957031 203.83 
Q 193.657031 203.83 193.657031 202.13 
L 193.657031 127.850625 
Q 193.657031 126.150625 191.957031 126.150625 
L 127.149844 126.150625 
Q 125.449844 126.150625 125.449844 127.850625 
L 125.449844 202.13 
Q 125.449844 203.83 127.149844 203.83 
z
" style="fill: #ffffff; opacity: 0.8; stroke: #cccccc; stroke-linejoin: miter"/>
    </g>
    <g id="line2d_11"/>
    <g id="text_10">
     <!-- φ = 1.00000 -->
     <g transform="translate(128.849844 136.054453)scale(0.085 -0.085)">
      <defs>
       <path id="DejaVuSansMono-3c6" d="M 2416 3034 
Q 2213 3034 2213 2581 
L 2213 438 
Q 2500 438 2769 763 
Q 3009 1053 3009 1750 
Q 3009 2441 2769 2750 
Q 2547 3034 2416 3034 
z
M 2416 3525 
Q 2847 3525 3219 3113 
Q 3616 2672 3616 1750 
Q 3616 869 3219 400 
Q 2816 -75 2213 -75 
L 2213 -1331 
L 1641 -1331 
L 1641 -78 
Q 1019 -78 631 400 
Q 238 884 238 1747 
Q 238 2684 631 3097 
Q 956 3438 1438 3525 
L 1438 3016 
Q 1234 2934 1081 2700 
Q 844 2341 844 1747 
Q 844 1072 1081 756 
Q 1325 434 1641 434 
L 1641 2581 
Q 1641 3525 2416 3525 
z
" transform="scale(0.015625)"/>
       <path id="DejaVuSansMono-20" transform="scale(0.015625)"/>
       <path id="DejaVuSansMono-3d" d="M 275 1638 
L 3578 1638 
L 3578 1100 
L 275 1100 
L 275 1638 
z
M 275 2906 
L 3578 2906 
L 3578 2375 
L 275 2375 
L 275 2906 
z
" transform="scale(0.015625)"/>
       <path id="DejaVuSansMono-31" d="M 844 531 
L 1825 531 
L 1825 4097 
L 769 3859 
L 769 4434 
L 1819 4666 
L 2450 4666 
L 2450 531 
L 3419 531 
L 3419 0 
L 844 0 
L 844 531 
z
" transform="scale(0.015625)"/>
       <path id="DejaVuSansMono-2e" d="M 1528 953 
L 2316 953 
L 2316 0 
L 1528 0 
L 1528 953 
z
" transform="scale(0.015625)"/>
       <path id="DejaVuSansMono-30" d="M 1509 2344 
Q 1509 2516 1629 2641 
Q 1750 2766 1919 2766 
Q 2094 2766 2219 2641 
Q 2344 2516 2344 2344 
Q 2344 2169 2220 2047 
Q 2097 1925 1919 1925 
Q 1744 1925 1626 2044 
Q 1509 2163 1509 2344 
z
M 1925 4250 
Q 1484 4250 1267 3775 
Q 1050 3300 1050 2328 
Q 1050 1359 1267 884 
Q 1484 409 1925 409 
Q 2369 409 2586 884 
Q 2803 1359 2803 2328 
Q 2803 3300 2586 3775 
Q 2369 4250 1925 4250 
z
M 1925 4750 
Q 2672 4750 3055 4137 
Q 3438 3525 3438 2328 
Q 3438 1134 3055 521 
Q 2672 -91 1925 -91 
Q 1178 -91 797 521 
Q 416 1134 416 2328 
Q 416 3525 797 4137 
Q 1178 4750 1925 4750 
z
" transform="scale(0.015625)"/>
      </defs>
      <use xlink:href="#DejaVuSansMono-3c6"/>
      <use xlink:href="#DejaVuSansMono-20" x="60.205078"/>
      <use xlink:href="#DejaVuSansMono-3d" x="120.410156"/>
      <use xlink:href="#DejaVuSansMono-20" x="180.615234"/>
      <use xlink:href="#DejaVuSansMono-31" x="240.820312"/>
      <use xlink:href="#DejaVuSansMono-2e" x="301.025391"/>
      <use xlink:href="#DejaVuSansMono-30" x="361.230469"/>
      <use xlink:href="#DejaVuSansMono-30" x="421.435547"/>
      <use xlink:href="#DejaVuSansMono-30" x="481.640625"/>
      <use xlink:href="#DejaVuSansMono-30" x="541.845703"/>
      <use xlink:href="#DejaVuSansMono-30" x="602.050781"/>
     </g>
    </g>
    <g id="line2d_12"/>
    <g id="text_11">
     <!-- ρ[✻] = 0.01 -->
     <g transform="translate(128.849844 148.576016)scale(0.085 -0.085)">
      <defs>
       <path id="DejaVuSansMono-3c1" d="M 2013 3584 
Q 2738 3588 3100 3094 
Q 3463 2603 3463 1734 
Q 3463 881 3100 395 
Q 2738 -91 2106 -91 
Q 1788 -91 1548 45 
Q 1309 181 1172 441 
L 1172 -1331 
L 594 -1331 
L 594 1688 
Q 594 2675 938 3094 
Q 1347 3584 2013 3584 
z
M 2859 1747 
Q 2859 2416 2648 2756 
Q 2438 3097 2022 3097 
Q 1603 3097 1387 2755 
Q 1172 2413 1172 1747 
Q 1172 1084 1387 740 
Q 1603 397 2022 397 
Q 2438 397 2648 737 
Q 2859 1078 2859 1747 
z
" transform="scale(0.015625)"/>
       <path id="DejaVuSansMono-5b" d="M 1447 4863 
L 2772 4863 
L 2772 4416 
L 2022 4416 
L 2022 -397 
L 2772 -397 
L 2772 -844 
L 1447 -844 
L 1447 4863 
z
" transform="scale(0.015625)"/>
       <path id="DejaVuSansMono-273b" d="M 1797 2375 
L 1797 2406 
Q 1797 2734 1603 3041 
Q 1491 3219 1491 3419 
Q 1491 3675 1628 3797 
Q 1772 3925 1926 3925 
Q 2081 3925 2225 3797 
Q 2363 3675 2363 3419 
Q 2363 3219 2250 3041 
Q 2056 2728 2056 2406 
L 2056 2375 
L 2097 2359 
Q 2175 2325 2238 2266 
L 2263 2281 
Q 2553 2456 2719 2769 
Q 2819 2956 2991 3056 
Q 3144 3144 3278 3144 
Q 3334 3144 3388 3128 
Q 3569 3066 3647 2931 
Q 3697 2844 3697 2731 
Q 3697 2675 3684 2613 
Q 3650 2428 3425 2300 
Q 3266 2209 3072 2209 
Q 3056 2209 3041 2209 
Q 3016 2209 2988 2209 
Q 2653 2209 2397 2059 
L 2366 2044 
Q 2375 1994 2375 1944 
Q 2375 1888 2363 1838 
L 2394 1819 
Q 2653 1666 2988 1666 
Q 3016 1666 3041 1669 
Q 3056 1669 3072 1669 
Q 3266 1669 3425 1575 
Q 3650 1447 3684 1266 
Q 3697 1203 3697 1147 
Q 3697 1034 3647 944 
Q 3569 813 3388 750 
Q 3334 734 3278 734 
Q 3144 734 2991 822 
Q 2819 922 2719 1109 
Q 2547 1431 2266 1594 
L 2228 1616 
Q 2159 1550 2097 1528 
L 2056 1513 
L 2056 1472 
Q 2056 1147 2250 838 
Q 2363 659 2363 459 
Q 2363 203 2225 78 
Q 2081 -47 1926 -47 
Q 1772 -47 1628 78 
Q 1491 203 1491 459 
Q 1491 659 1603 838 
Q 1800 1147 1800 1472 
L 1800 1513 
Q 1778 1519 1756 1528 
Q 1684 1559 1625 1616 
L 1588 1594 
Q 1306 1431 1134 1109 
Q 1034 922 863 822 
Q 709 734 575 734 
Q 519 734 466 750 
Q 284 813 206 944 
Q 156 1034 156 1147 
Q 156 1203 169 1266 
Q 203 1447 428 1575 
Q 588 1669 781 1669 
Q 797 1669 813 1669 
Q 838 1666 866 1666 
Q 1203 1666 1459 1816 
L 1491 1834 
Q 1478 1884 1478 1944 
Q 1478 1994 1488 2044 
L 1456 2059 
Q 1200 2209 866 2209 
Q 838 2209 813 2209 
Q 797 2209 781 2209 
Q 588 2209 428 2300 
Q 203 2428 169 2613 
Q 156 2675 156 2731 
Q 156 2844 206 2931 
Q 284 3066 466 3128 
Q 519 3144 575 3144 
Q 709 3144 863 3056 
Q 1034 2956 1134 2769 
Q 1313 2434 1588 2284 
L 1616 2269 
Q 1684 2331 1756 2359 
Q 1778 2369 1797 2375 
z
" transform="scale(0.015625)"/>
       <path id="DejaVuSansMono-5d" d="M 2406 4863 
L 2406 -844 
L 1081 -844 
L 1081 -397 
L 1831 -397 
L 1831 4416 
L 1081 4416 
L 1081 4863 
L 2406 4863 
z
" transform="scale(0.015625)"/>
      </defs>
      <use xlink:href="#DejaVuSansMono-3c1"/>
      <use xlink:href="#DejaVuSansMono-5b" x="60.205078"/>
      <use xlink:href="#DejaVuSansMono-273b" x="120.410156"/>
      <use xlink:href="#DejaVuSansMono-5d" x="180.615234"/>
      <use xlink:href="#DejaVuSansMono-20" x="240.820312"/>
      <use xlink:href="#DejaVuSansMono-3d" x="301.025391"/>
      <use xlink:href="#DejaVuSansMono-20" x="361.230469"/>
      <use xlink:href="#DejaVuSansMono-30" x="421.435547"/>
      <use xlink:href="#DejaVuSansMono-2e" x="481.640625"/>
      <use xlink:href="#DejaVuSansMono-30" x="541.845703"/>
      <use xlink:href="#DejaVuSansMono-31" x="602.050781"/>
     </g>
    </g>
    <g id="line2d_13"/>
    <g id="text_12">
     <!-- ρ[←] = 0.03 -->
     <g transform="translate(128.849844 161.097578)scale(0.085 -0.085)">
      <defs>
       <path id="DejaVuSansMono-2190" d="M 206 1625 
L 206 1881 
L 1116 2791 
L 1397 2509 
L 897 2009 
L 3647 2009 
L 3647 1497 
L 897 1497 
L 1397 997 
L 1116 716 
L 206 1625 
z
" transform="scale(0.015625)"/>
       <path id="DejaVuSansMono-33" d="M 2425 2497 
Q 2884 2375 3128 2064 
Q 3372 1753 3372 1288 
Q 3372 644 2939 276 
Q 2506 -91 1741 -91 
Q 1419 -91 1084 -31 
Q 750 28 428 141 
L 428 769 
Q 747 603 1056 522 
Q 1366 441 1672 441 
Q 2191 441 2469 675 
Q 2747 909 2747 1350 
Q 2747 1756 2469 1995 
Q 2191 2234 1716 2234 
L 1234 2234 
L 1234 2753 
L 1716 2753 
Q 2150 2753 2394 2943 
Q 2638 3134 2638 3475 
Q 2638 3834 2411 4026 
Q 2184 4219 1766 4219 
Q 1488 4219 1191 4156 
Q 894 4094 569 3969 
L 569 4550 
Q 947 4650 1242 4700 
Q 1538 4750 1766 4750 
Q 2447 4750 2855 4408 
Q 3263 4066 3263 3500 
Q 3263 3116 3048 2859 
Q 2834 2603 2425 2497 
z
" transform="scale(0.015625)"/>
      </defs>
      <use xlink:href="#DejaVuSansMono-3c1"/>
      <use xlink:href="#DejaVuSansMono-5b" x="60.205078"/>
      <use xlink:href="#DejaVuSansMono-2190" x="120.410156"/>
      <use xlink:href="#DejaVuSansMono-5d" x="180.615234"/>
      <use xlink:href="#DejaVuSansMono-20" x="240.820312"/>
      <use xlink:href="#DejaVuSansMono-3d" x="301.025391"/>
      <use xlink:href="#DejaVuSansMono-20" x="361.230469"/>
      <use xlink:href="#DejaVuSansMono-30" x="421.435547"/>
      <use xlink:href="#DejaVuSansMono-2e" x="481.640625"/>
      <use xlink:href="#DejaVuSansMono-30" x="541.845703"/>
      <use xlink:href="#DejaVuSansMono-33" x="602.050781"/>
     </g>
    </g>
    <g id="line2d_14"/>
    <g id="text_13">
     <!-- ρ[→] = -0.95 -->
     <g transform="translate(128.849844 173.619141)scale(0.085 -0.085)">
      <defs>
       <path id="DejaVuSansMono-2192" d="M 3647 1625 
L 2738 716 
L 2456 997 
L 2956 1497 
L 206 1497 
L 206 2009 
L 2956 2009 
L 2456 2509 
L 2738 2791 
L 3647 1881 
L 3647 1625 
z
" transform="scale(0.015625)"/>
       <path id="DejaVuSansMono-2d" d="M 1113 2009 
L 2741 2009 
L 2741 1497 
L 1113 1497 
L 1113 2009 
z
" transform="scale(0.015625)"/>
       <path id="DejaVuSansMono-39" d="M 1863 2069 
Q 2266 2069 2495 2359 
Q 2725 2650 2725 3163 
Q 2725 3675 2495 3965 
Q 2266 4256 1863 4256 
Q 1444 4256 1231 3979 
Q 1019 3703 1019 3163 
Q 1019 2619 1230 2344 
Q 1441 2069 1863 2069 
z
M 738 97 
L 738 678 
Q 934 563 1156 502 
Q 1378 441 1619 441 
Q 2219 441 2526 892 
Q 2834 1344 2834 2222 
Q 2688 1909 2422 1742 
Q 2156 1575 1813 1575 
Q 1138 1575 767 1990 
Q 397 2406 397 3169 
Q 397 3922 776 4336 
Q 1156 4750 1850 4750 
Q 2663 4750 3041 4165 
Q 3419 3581 3419 2328 
Q 3419 1150 2964 529 
Q 2509 -91 1644 -91 
Q 1416 -91 1184 -42 
Q 953 6 738 97 
z
" transform="scale(0.015625)"/>
       <path id="DejaVuSansMono-35" d="M 647 4666 
L 3009 4666 
L 3009 4134 
L 1222 4134 
L 1222 2988 
Q 1356 3038 1492 3061 
Q 1628 3084 1766 3084 
Q 2491 3084 2916 2656 
Q 3341 2228 3341 1497 
Q 3341 759 2895 334 
Q 2450 -91 1678 -91 
Q 1306 -91 998 -41 
Q 691 9 447 109 
L 447 750 
Q 734 594 1025 517 
Q 1316 441 1619 441 
Q 2141 441 2423 716 
Q 2706 991 2706 1497 
Q 2706 1997 2414 2275 
Q 2122 2553 1600 2553 
Q 1347 2553 1106 2495 
Q 866 2438 647 2322 
L 647 4666 
z
" transform="scale(0.015625)"/>
      </defs>
      <use xlink:href="#DejaVuSansMono-3c1"/>
      <use xlink:href="#DejaVuSansMono-5b" x="60.205078"/>
      <use xlink:href="#DejaVuSansMono-2192" x="120.410156"/>
      <use xlink:href="#DejaVuSansMono-5d" x="180.615234"/>
      <use xlink:href="#DejaVuSansMono-20" x="240.820312"/>
      <use xlink:href="#DejaVuSansMono-3d" x="301.025391"/>
      <use xlink:href="#DejaVuSansMono-20" x="361.230469"/>
      <use xlink:href="#DejaVuSansMono-2d" x="421.435547"/>
      <use xlink:href="#DejaVuSansMono-30" x="481.640625"/>
      <use xlink:href="#DejaVuSansMono-2e" x="541.845703"/>
      <use xlink:href="#DejaVuSansMono-39" x="602.050781"/>
      <use xlink:href="#DejaVuSansMono-35" x="662.255859"/>
     </g>
    </g>
    <g id="line2d_15"/>
    <g id="text_14">
     <!-- ρ[↓] = 0.03 -->
     <g transform="translate(128.849844 186.140703)scale(0.085 -0.085)">
      <defs>
       <path id="DejaVuSansMono-2193" d="M 1800 0 
L 888 909 
L 1169 1191 
L 1669 691 
L 1669 3441 
L 2181 3441 
L 2181 691 
L 2681 1191 
L 2963 909 
L 2056 0 
L 1800 0 
z
" transform="scale(0.015625)"/>
      </defs>
      <use xlink:href="#DejaVuSansMono-3c1"/>
      <use xlink:href="#DejaVuSansMono-5b" x="60.205078"/>
      <use xlink:href="#DejaVuSansMono-2193" x="120.410156"/>
      <use xlink:href="#DejaVuSansMono-5d" x="180.615234"/>
      <use xlink:href="#DejaVuSansMono-20" x="240.820312"/>
      <use xlink:href="#DejaVuSansMono-3d" x="301.025391"/>
      <use xlink:href="#DejaVuSansMono-20" x="361.230469"/>
      <use xlink:href="#DejaVuSansMono-30" x="421.435547"/>
      <use xlink:href="#DejaVuSansMono-2e" x="481.640625"/>
      <use xlink:href="#DejaVuSansMono-30" x="541.845703"/>
      <use xlink:href="#DejaVuSansMono-33" x="602.050781"/>
     </g>
    </g>
    <g id="line2d_16"/>
    <g id="text_15">
     <!-- ρ[↑] = -0.20 -->
     <g transform="translate(128.849844 198.662266)scale(0.085 -0.085)">
      <defs>
       <path id="DejaVuSansMono-2191" d="M 2056 3441 
L 2963 2531 
L 2681 2250 
L 2181 2750 
L 2181 0 
L 1669 0 
L 1669 2750 
L 1169 2250 
L 888 2531 
L 1800 3441 
L 2056 3441 
z
" transform="scale(0.015625)"/>
       <path id="DejaVuSansMono-32" d="M 1166 531 
L 3309 531 
L 3309 0 
L 475 0 
L 475 531 
Q 1059 1147 1496 1619 
Q 1934 2091 2100 2284 
Q 2413 2666 2522 2902 
Q 2631 3138 2631 3384 
Q 2631 3775 2401 3997 
Q 2172 4219 1772 4219 
Q 1488 4219 1175 4116 
Q 863 4013 513 3803 
L 513 4441 
Q 834 4594 1145 4672 
Q 1456 4750 1759 4750 
Q 2444 4750 2861 4386 
Q 3278 4022 3278 3431 
Q 3278 3131 3139 2831 
Q 3000 2531 2688 2169 
Q 2513 1966 2180 1606 
Q 1847 1247 1166 531 
z
" transform="scale(0.015625)"/>
      </defs>
      <use xlink:href="#DejaVuSansMono-3c1"/>
      <use xlink:href="#DejaVuSansMono-5b" x="60.205078"/>
      <use xlink:href="#DejaVuSansMono-2191" x="120.410156"/>
      <use xlink:href="#DejaVuSansMono-5d" x="180.615234"/>
      <use xlink:href="#DejaVuSansMono-20" x="240.820312"/>
      <use xlink:href="#DejaVuSansMono-3d" x="301.025391"/>
      <use xlink:href="#DejaVuSansMono-20" x="361.230469"/>
      <use xlink:href="#DejaVuSansMono-2d" x="421.435547"/>
      <use xlink:href="#DejaVuSansMono-30" x="481.640625"/>
      <use xlink:href="#DejaVuSansMono-2e" x="541.845703"/>
      <use xlink:href="#DejaVuSansMono-32" x="602.050781"/>
      <use xlink:href="#DejaVuSansMono-30" x="662.255859"/>
     </g>
    </g>
   </g>
  </g>
  <g id="axes_2">
   <g id="patch_12">
    <path d="M 212.207031 208.08 
L 367.082031 208.08 
L 367.082031 63.08 
L 212.207031 63.08 
z
" style="fill: #ffffff"/>
   </g>
   <g id="patch_13">
    <path d="M 212.207031 201.489091 
L 250.638685 201.489091 
L 250.638685 173.737895 
L 212.207031 173.737895 
z
" clip-path="url(#p1234d7dfa2)" style="fill: #3cb371; opacity: 0.8"/>
   </g>
   <g id="patch_14">
    <path d="M 212.207031 166.800096 
L 252.052946 166.800096 
L 252.052946 139.0489 
L 212.207031 139.0489 
z
" clip-path="url(#p1234d7dfa2)" style="fill: #3cb371; opacity: 0.8"/>
   </g>
   <g id="patch_15">
    <path d="M 212.207031 132.1111 
L 236.284694 132.1111 
L 236.284694 104.359904 
L 212.207031 104.359904 
z
" clip-path="url(#p1234d7dfa2)" style="fill: #3cb371; opacity: 0.8"/>
   </g>
   <g id="patch_16">
    <path d="M 212.207031 97.422105 
L 259.544183 97.422105 
L 259.544183 69.670909 
L 212.207031 69.670909 
z
" clip-path="url(#p1234d7dfa2)" style="fill: #3cb371; opacity: 0.8"/>
   </g>
   <g id="matplotlib.axis_3">
    <g id="xtick_5"/>
    <g id="xtick_6"/>
    <g id="xtick_7"/>
   </g>
   <g id="matplotlib.axis_4">
    <g id="ytick_5">
     <g id="line2d_17">
      <g>
       <use xlink:href="#mc96adf423a" x="212.207031" y="187.613493" style="stroke: #000000; stroke-width: 0.8"/>
      </g>
     </g>
    </g>
    <g id="ytick_6">
     <g id="line2d_18">
      <g>
       <use xlink:href="#mc96adf423a" x="212.207031" y="152.924498" style="stroke: #000000; stroke-width: 0.8"/>
      </g>
     </g>
    </g>
    <g id="ytick_7">
     <g id="line2d_19">
      <g>
       <use xlink:href="#mc96adf423a" x="212.207031" y="118.235502" style="stroke: #000000; stroke-width: 0.8"/>
      </g>
     </g>
    </g>
    <g id="ytick_8">
     <g id="line2d_20">
      <g>
       <use xlink:href="#mc96adf423a" x="212.207031" y="83.546507" style="stroke: #000000; stroke-width: 0.8"/>
      </g>
     </g>
    </g>
   </g>
   <g id="LineCollection_2">
    <path d="M 241.686318 187.613493 
L 259.591052 187.613493 
" clip-path="url(#p1234d7dfa2)" style="fill: none; stroke: #000000; stroke-width: 1.5"/>
    <path d="M 242.112035 152.924498 
L 261.993856 152.924498 
" clip-path="url(#p1234d7dfa2)" style="fill: none; stroke: #000000; stroke-width: 1.5"/>
    <path d="M 228.912445 118.235502 
L 243.656942 118.235502 
" clip-path="url(#p1234d7dfa2)" style="fill: none; stroke: #000000; stroke-width: 1.5"/>
    <path d="M 246.680639 83.546507 
L 272.407727 83.546507 
" clip-path="url(#p1234d7dfa2)" style="fill: none; stroke: #000000; stroke-width: 1.5"/>
   </g>
   <g id="line2d_21"/>
   <g id="line2d_22"/>
   <g id="line2d_23"/>
   <g id="line2d_24"/>
   <g id="line2d_25"/>
   <g id="line2d_26"/>
   <g id="patch_17">
    <path d="M 212.207031 208.08 
L 212.207031 63.08 
" style="fill: none; stroke: #000000; stroke-width: 0.8; stroke-linejoin: miter; stroke-linecap: square"/>
   </g>
   <g id="patch_18">
    <path d="M 367.082031 208.08 
L 367.082031 63.08 
" style="fill: none; stroke: #000000; stroke-width: 0.8; stroke-linejoin: miter; stroke-linecap: square"/>
   </g>
   <g id="patch_19">
    <path d="M 212.207031 208.08 
L 367.082031 208.08 
" style="fill: none; stroke: #000000; stroke-width: 0.8; stroke-linejoin: miter; stroke-linecap: square"/>
   </g>
   <g id="patch_20">
    <path d="M 212.207031 63.08 
L 367.082031 63.08 
" style="fill: none; stroke: #000000; stroke-width: 0.8; stroke-linejoin: miter; stroke-linecap: square"/>
   </g>
   <g id="text_16">
    <!-- 3.19 -->
    <g transform="translate(259.591052 189.958962)scale(0.085 -0.085)">
     <defs>
      <path id="DejaVuSans-31" d="M 794 531 
L 1825 531 
L 1825 4091 
L 703 3866 
L 703 4441 
L 1819 4666 
L 2450 4666 
L 2450 531 
L 3481 531 
L 3481 0 
L 794 0 
L 794 531 
z
" transform="scale(0.015625)"/>
     </defs>
     <use xlink:href="#DejaVuSans-33"/>
     <use xlink:href="#DejaVuSans-2e" x="63.623047"/>
     <use xlink:href="#DejaVuSans-31" x="95.410156"/>
     <use xlink:href="#DejaVuSans-39" x="159.033203"/>
    </g>
   </g>
   <g id="text_17">
    <!-- 3.31 -->
    <g transform="translate(261.993856 155.269966)scale(0.085 -0.085)">
     <use xlink:href="#DejaVuSans-33"/>
     <use xlink:href="#DejaVuSans-2e" x="63.623047"/>
     <use xlink:href="#DejaVuSans-33" x="95.410156"/>
     <use xlink:href="#DejaVuSans-31" x="159.033203"/>
    </g>
   </g>
   <g id="text_18">
    <!-- 2.00 -->
    <g transform="translate(243.656942 120.580971)scale(0.085 -0.085)">
     <defs>
      <path id="DejaVuSans-30" d="M 2034 4250 
Q 1547 4250 1301 3770 
Q 1056 3291 1056 2328 
Q 1056 1369 1301 889 
Q 1547 409 2034 409 
Q 2525 409 2770 889 
Q 3016 1369 3016 2328 
Q 3016 3291 2770 3770 
Q 2525 4250 2034 4250 
z
M 2034 4750 
Q 2819 4750 3233 4129 
Q 3647 3509 3647 2328 
Q 3647 1150 3233 529 
Q 2819 -91 2034 -91 
Q 1250 -91 836 529 
Q 422 1150 422 2328 
Q 422 3509 836 4129 
Q 1250 4750 2034 4750 
z
" transform="scale(0.015625)"/>
     </defs>
     <use xlink:href="#DejaVuSans-32"/>
     <use xlink:href="#DejaVuSans-2e" x="63.623047"/>
     <use xlink:href="#DejaVuSans-30" x="95.410156"/>
     <use xlink:href="#DejaVuSans-30" x="159.033203"/>
    </g>
   </g>
   <g id="text_19">
    <!-- 3.93 -->
    <g transform="translate(272.407727 85.891976)scale(0.085 -0.085)">
     <use xlink:href="#DejaVuSans-33"/>
     <use xlink:href="#DejaVuSans-2e" x="63.623047"/>
     <use xlink:href="#DejaVuSans-39" x="95.410156"/>
     <use xlink:href="#DejaVuSans-33" x="159.033203"/>
    </g>
   </g>
   <g id="text_20">
    <!-- Stepen naspram -->
    <g transform="translate(248.423437 45.882187)scale(0.1 -0.1)">
     <use xlink:href="#DejaVuSans-53"/>
     <use xlink:href="#DejaVuSans-74" x="63.476562"/>
     <use xlink:href="#DejaVuSans-65" x="102.685547"/>
     <use xlink:href="#DejaVuSans-70" x="164.208984"/>
     <use xlink:href="#DejaVuSans-65" x="227.685547"/>
     <use xlink:href="#DejaVuSans-6e" x="289.208984"/>
     <use xlink:href="#DejaVuSans-20" x="352.587891"/>
     <use xlink:href="#DejaVuSans-6e" x="384.375"/>
     <use xlink:href="#DejaVuSans-61" x="447.753906"/>
     <use xlink:href="#DejaVuSans-73" x="509.033203"/>
     <use xlink:href="#DejaVuSans-70" x="561.132812"/>
     <use xlink:href="#DejaVuSans-72" x="624.609375"/>
     <use xlink:href="#DejaVuSans-61" x="665.722656"/>
     <use xlink:href="#DejaVuSans-6d" x="727.001953"/>
    </g>
    <!-- prof. regiona &gt;=5 (M_iRef) -->
    <g transform="translate(223.0875 57.08)scale(0.1 -0.1)">
     <defs>
      <path id="DejaVuSans-52" d="M 2841 2188 
Q 3044 2119 3236 1894 
Q 3428 1669 3622 1275 
L 4263 0 
L 3584 0 
L 2988 1197 
Q 2756 1666 2539 1819 
Q 2322 1972 1947 1972 
L 1259 1972 
L 1259 0 
L 628 0 
L 628 4666 
L 2053 4666 
Q 2853 4666 3247 4331 
Q 3641 3997 3641 3322 
Q 3641 2881 3436 2590 
Q 3231 2300 2841 2188 
z
M 1259 4147 
L 1259 2491 
L 2053 2491 
Q 2509 2491 2742 2702 
Q 2975 2913 2975 3322 
Q 2975 3731 2742 3939 
Q 2509 4147 2053 4147 
L 1259 4147 
z
" transform="scale(0.015625)"/>
     </defs>
     <use xlink:href="#DejaVuSans-70"/>
     <use xlink:href="#DejaVuSans-72" x="63.476562"/>
     <use xlink:href="#DejaVuSans-6f" x="102.339844"/>
     <use xlink:href="#DejaVuSans-66" x="163.521484"/>
     <use xlink:href="#DejaVuSans-2e" x="191.476562"/>
     <use xlink:href="#DejaVuSans-20" x="223.263672"/>
     <use xlink:href="#DejaVuSans-72" x="255.050781"/>
     <use xlink:href="#DejaVuSans-65" x="293.914062"/>
     <use xlink:href="#DejaVuSans-67" x="355.4375"/>
     <use xlink:href="#DejaVuSans-69" x="418.914062"/>
     <use xlink:href="#DejaVuSans-6f" x="446.697266"/>
     <use xlink:href="#DejaVuSans-6e" x="507.878906"/>
     <use xlink:href="#DejaVuSans-61" x="571.257812"/>
     <use xlink:href="#DejaVuSans-20" x="632.537109"/>
     <use xlink:href="#DejaVuSans-3e" x="664.324219"/>
     <use xlink:href="#DejaVuSans-3d" x="748.113281"/>
     <use xlink:href="#DejaVuSans-35" x="831.902344"/>
     <use xlink:href="#DejaVuSans-20" x="895.525391"/>
     <use xlink:href="#DejaVuSans-28" x="927.3125"/>
     <use xlink:href="#DejaVuSans-4d" x="966.326172"/>
     <use xlink:href="#DejaVuSans-5f" x="1052.605469"/>
     <use xlink:href="#DejaVuSans-69" x="1102.605469"/>
     <use xlink:href="#DejaVuSans-52" x="1130.388672"/>
     <use xlink:href="#DejaVuSans-65" x="1195.371094"/>
     <use xlink:href="#DejaVuSans-66" x="1256.894531"/>
     <use xlink:href="#DejaVuSans-29" x="1292.099609"/>
    </g>
   </g>
   <g id="legend_2">
    <g id="patch_21">
     <path d="M 296.324844 203.83 
L 361.132031 203.83 
Q 362.832031 203.83 362.832031 202.13 
L 362.832031 127.850625 
Q 362.832031 126.150625 361.132031 126.150625 
L 296.324844 126.150625 
Q 294.624844 126.150625 294.624844 127.850625 
L 294.624844 202.13 
Q 294.624844 203.83 296.324844 203.83 
z
" style="fill: #ffffff; opacity: 0.8; stroke: #cccccc; stroke-linejoin: miter"/>
    </g>
    <g id="line2d_27"/>
    <g id="text_21">
     <!-- φ = 1.00000 -->
     <g transform="translate(298.024844 136.054453)scale(0.085 -0.085)">
      <use xlink:href="#DejaVuSansMono-3c6"/>
      <use xlink:href="#DejaVuSansMono-20" x="60.205078"/>
      <use xlink:href="#DejaVuSansMono-3d" x="120.410156"/>
      <use xlink:href="#DejaVuSansMono-20" x="180.615234"/>
      <use xlink:href="#DejaVuSansMono-31" x="240.820312"/>
      <use xlink:href="#DejaVuSansMono-2e" x="301.025391"/>
      <use xlink:href="#DejaVuSansMono-30" x="361.230469"/>
      <use xlink:href="#DejaVuSansMono-30" x="421.435547"/>
      <use xlink:href="#DejaVuSansMono-30" x="481.640625"/>
      <use xlink:href="#DejaVuSansMono-30" x="541.845703"/>
      <use xlink:href="#DejaVuSansMono-30" x="602.050781"/>
     </g>
    </g>
    <g id="line2d_28"/>
    <g id="text_22">
     <!-- ρ[✻] = -0.11 -->
     <g transform="translate(298.024844 148.576016)scale(0.085 -0.085)">
      <use xlink:href="#DejaVuSansMono-3c1"/>
      <use xlink:href="#DejaVuSansMono-5b" x="60.205078"/>
      <use xlink:href="#DejaVuSansMono-273b" x="120.410156"/>
      <use xlink:href="#DejaVuSansMono-5d" x="180.615234"/>
      <use xlink:href="#DejaVuSansMono-20" x="240.820312"/>
      <use xlink:href="#DejaVuSansMono-3d" x="301.025391"/>
      <use xlink:href="#DejaVuSansMono-20" x="361.230469"/>
      <use xlink:href="#DejaVuSansMono-2d" x="421.435547"/>
      <use xlink:href="#DejaVuSansMono-30" x="481.640625"/>
      <use xlink:href="#DejaVuSansMono-2e" x="541.845703"/>
      <use xlink:href="#DejaVuSansMono-31" x="602.050781"/>
      <use xlink:href="#DejaVuSansMono-31" x="662.255859"/>
     </g>
    </g>
    <g id="line2d_29"/>
    <g id="text_23">
     <!-- ρ[←] = -0.10 -->
     <g transform="translate(298.024844 161.097578)scale(0.085 -0.085)">
      <use xlink:href="#DejaVuSansMono-3c1"/>
      <use xlink:href="#DejaVuSansMono-5b" x="60.205078"/>
      <use xlink:href="#DejaVuSansMono-2190" x="120.410156"/>
      <use xlink:href="#DejaVuSansMono-5d" x="180.615234"/>
      <use xlink:href="#DejaVuSansMono-20" x="240.820312"/>
      <use xlink:href="#DejaVuSansMono-3d" x="301.025391"/>
      <use xlink:href="#DejaVuSansMono-20" x="361.230469"/>
      <use xlink:href="#DejaVuSansMono-2d" x="421.435547"/>
      <use xlink:href="#DejaVuSansMono-30" x="481.640625"/>
      <use xlink:href="#DejaVuSansMono-2e" x="541.845703"/>
      <use xlink:href="#DejaVuSansMono-31" x="602.050781"/>
      <use xlink:href="#DejaVuSansMono-30" x="662.255859"/>
     </g>
    </g>
    <g id="line2d_30"/>
    <g id="text_24">
     <!-- ρ[→] = 0.50 -->
     <g transform="translate(298.024844 173.619141)scale(0.085 -0.085)">
      <use xlink:href="#DejaVuSansMono-3c1"/>
      <use xlink:href="#DejaVuSansMono-5b" x="60.205078"/>
      <use xlink:href="#DejaVuSansMono-2192" x="120.410156"/>
      <use xlink:href="#DejaVuSansMono-5d" x="180.615234"/>
      <use xlink:href="#DejaVuSansMono-20" x="240.820312"/>
      <use xlink:href="#DejaVuSansMono-3d" x="301.025391"/>
      <use xlink:href="#DejaVuSansMono-20" x="361.230469"/>
      <use xlink:href="#DejaVuSansMono-30" x="421.435547"/>
      <use xlink:href="#DejaVuSansMono-2e" x="481.640625"/>
      <use xlink:href="#DejaVuSansMono-35" x="541.845703"/>
      <use xlink:href="#DejaVuSansMono-30" x="602.050781"/>
     </g>
    </g>
    <g id="line2d_31"/>
    <g id="text_25">
     <!-- ρ[↓] = -0.11 -->
     <g transform="translate(298.024844 186.140703)scale(0.085 -0.085)">
      <use xlink:href="#DejaVuSansMono-3c1"/>
      <use xlink:href="#DejaVuSansMono-5b" x="60.205078"/>
      <use xlink:href="#DejaVuSansMono-2193" x="120.410156"/>
      <use xlink:href="#DejaVuSansMono-5d" x="180.615234"/>
      <use xlink:href="#DejaVuSansMono-20" x="240.820312"/>
      <use xlink:href="#DejaVuSansMono-3d" x="301.025391"/>
      <use xlink:href="#DejaVuSansMono-20" x="361.230469"/>
      <use xlink:href="#DejaVuSansMono-2d" x="421.435547"/>
      <use xlink:href="#DejaVuSansMono-30" x="481.640625"/>
      <use xlink:href="#DejaVuSansMono-2e" x="541.845703"/>
      <use xlink:href="#DejaVuSansMono-31" x="602.050781"/>
      <use xlink:href="#DejaVuSansMono-31" x="662.255859"/>
     </g>
    </g>
    <g id="line2d_32"/>
    <g id="text_26">
     <!-- ρ[↑] = -0.23 -->
     <g transform="translate(298.024844 198.662266)scale(0.085 -0.085)">
      <use xlink:href="#DejaVuSansMono-3c1"/>
      <use xlink:href="#DejaVuSansMono-5b" x="60.205078"/>
      <use xlink:href="#DejaVuSansMono-2191" x="120.410156"/>
      <use xlink:href="#DejaVuSansMono-5d" x="180.615234"/>
      <use xlink:href="#DejaVuSansMono-20" x="240.820312"/>
      <use xlink:href="#DejaVuSansMono-3d" x="301.025391"/>
      <use xlink:href="#DejaVuSansMono-20" x="361.230469"/>
      <use xlink:href="#DejaVuSansMono-2d" x="421.435547"/>
      <use xlink:href="#DejaVuSansMono-30" x="481.640625"/>
      <use xlink:href="#DejaVuSansMono-2e" x="541.845703"/>
      <use xlink:href="#DejaVuSansMono-32" x="602.050781"/>
      <use xlink:href="#DejaVuSansMono-33" x="662.255859"/>
     </g>
    </g>
   </g>
  </g>
  <g id="axes_3">
   <g id="patch_22">
    <path d="M 381.382031 208.08 
L 536.257031 208.08 
L 536.257031 63.08 
L 381.382031 63.08 
z
" style="fill: #ffffff"/>
   </g>
   <g id="patch_23">
    <path d="M 381.382031 201.489091 
L 428.515736 201.489091 
L 428.515736 173.737895 
L 381.382031 173.737895 
z
" clip-path="url(#p673206a2a3)" style="fill: #3cb371; opacity: 0.8"/>
   </g>
   <g id="patch_24">
    <path d="M 381.382031 166.800096 
L 420.945037 166.800096 
L 420.945037 139.0489 
L 381.382031 139.0489 
z
" clip-path="url(#p673206a2a3)" style="fill: #3cb371; opacity: 0.8"/>
   </g>
   <g id="patch_25">
    <path d="M 381.382031 132.1111 
L 390.17381 132.1111 
L 390.17381 104.359904 
L 381.382031 104.359904 
z
" clip-path="url(#p673206a2a3)" style="fill: #3cb371; opacity: 0.8"/>
   </g>
   <g id="patch_26">
    <path d="M 381.382031 97.422105 
L 416.192929 97.422105 
L 416.192929 69.670909 
L 381.382031 69.670909 
z
" clip-path="url(#p673206a2a3)" style="fill: #3cb371; opacity: 0.8"/>
   </g>
   <g id="matplotlib.axis_5">
    <g id="xtick_8"/>
    <g id="xtick_9"/>
    <g id="xtick_10"/>
    <g id="xtick_11"/>
    <g id="xtick_12"/>
   </g>
   <g id="matplotlib.axis_6">
    <g id="ytick_9">
     <g id="line2d_33">
      <g>
       <use xlink:href="#mc96adf423a" x="381.382031" y="187.613493" style="stroke: #000000; stroke-width: 0.8"/>
      </g>
     </g>
    </g>
    <g id="ytick_10">
     <g id="line2d_34">
      <g>
       <use xlink:href="#mc96adf423a" x="381.382031" y="152.924498" style="stroke: #000000; stroke-width: 0.8"/>
      </g>
     </g>
    </g>
    <g id="ytick_11">
     <g id="line2d_35">
      <g>
       <use xlink:href="#mc96adf423a" x="381.382031" y="118.235502" style="stroke: #000000; stroke-width: 0.8"/>
      </g>
     </g>
    </g>
    <g id="ytick_12">
     <g id="line2d_36">
      <g>
       <use xlink:href="#mc96adf423a" x="381.382031" y="83.546507" style="stroke: #000000; stroke-width: 0.8"/>
      </g>
     </g>
    </g>
   </g>
   <g id="LineCollection_3">
    <path d="M 420.866176 187.613493 
L 436.165295 187.613493 
" clip-path="url(#p673206a2a3)" style="fill: none; stroke: #000000; stroke-width: 1.5"/>
    <path d="M 411.379308 152.924498 
L 430.510766 152.924498 
" clip-path="url(#p673206a2a3)" style="fill: none; stroke: #000000; stroke-width: 1.5"/>
    <path d="M 387.908221 118.235502 
L 392.4394 118.235502 
" clip-path="url(#p673206a2a3)" style="fill: none; stroke: #000000; stroke-width: 1.5"/>
    <path d="M 402.719042 83.546507 
L 429.666816 83.546507 
" clip-path="url(#p673206a2a3)" style="fill: none; stroke: #000000; stroke-width: 1.5"/>
   </g>
   <g id="line2d_37"/>
   <g id="line2d_38"/>
   <g id="line2d_39"/>
   <g id="line2d_40"/>
   <g id="line2d_41"/>
   <g id="line2d_42"/>
   <g id="patch_27">
    <path d="M 381.382031 208.08 
L 381.382031 63.08 
" style="fill: none; stroke: #000000; stroke-width: 0.8; stroke-linejoin: miter; stroke-linecap: square"/>
   </g>
   <g id="patch_28">
    <path d="M 536.257031 208.08 
L 536.257031 63.08 
" style="fill: none; stroke: #000000; stroke-width: 0.8; stroke-linejoin: miter; stroke-linecap: square"/>
   </g>
   <g id="patch_29">
    <path d="M 381.382031 208.08 
L 536.257031 208.08 
" style="fill: none; stroke: #000000; stroke-width: 0.8; stroke-linejoin: miter; stroke-linecap: square"/>
   </g>
   <g id="patch_30">
    <path d="M 381.382031 63.08 
L 536.257031 63.08 
" style="fill: none; stroke: #000000; stroke-width: 0.8; stroke-linejoin: miter; stroke-linecap: square"/>
   </g>
   <g id="text_27">
    <!-- 7.15 -->
    <g transform="translate(436.165295 189.958962)scale(0.085 -0.085)">
     <use xlink:href="#DejaVuSans-37"/>
     <use xlink:href="#DejaVuSans-2e" x="63.623047"/>
     <use xlink:href="#DejaVuSans-31" x="95.410156"/>
     <use xlink:href="#DejaVuSans-35" x="159.033203"/>
    </g>
   </g>
   <g id="text_28">
    <!-- 6.00 -->
    <g transform="translate(430.510766 155.269966)scale(0.085 -0.085)">
     <use xlink:href="#DejaVuSans-36"/>
     <use xlink:href="#DejaVuSans-2e" x="63.623047"/>
     <use xlink:href="#DejaVuSans-30" x="95.410156"/>
     <use xlink:href="#DejaVuSans-30" x="159.033203"/>
    </g>
   </g>
   <g id="text_29">
    <!-- 1.33 -->
    <g transform="translate(392.4394 120.580971)scale(0.085 -0.085)">
     <use xlink:href="#DejaVuSans-31"/>
     <use xlink:href="#DejaVuSans-2e" x="63.623047"/>
     <use xlink:href="#DejaVuSans-33" x="95.410156"/>
     <use xlink:href="#DejaVuSans-33" x="159.033203"/>
    </g>
   </g>
   <g id="text_30">
    <!-- 5.28 -->
    <g transform="translate(429.666816 85.891976)scale(0.085 -0.085)">
     <defs>
      <path id="DejaVuSans-38" d="M 2034 2216 
Q 1584 2216 1326 1975 
Q 1069 1734 1069 1313 
Q 1069 891 1326 650 
Q 1584 409 2034 409 
Q 2484 409 2743 651 
Q 3003 894 3003 1313 
Q 3003 1734 2745 1975 
Q 2488 2216 2034 2216 
z
M 1403 2484 
Q 997 2584 770 2862 
Q 544 3141 544 3541 
Q 544 4100 942 4425 
Q 1341 4750 2034 4750 
Q 2731 4750 3128 4425 
Q 3525 4100 3525 3541 
Q 3525 3141 3298 2862 
Q 3072 2584 2669 2484 
Q 3125 2378 3379 2068 
Q 3634 1759 3634 1313 
Q 3634 634 3220 271 
Q 2806 -91 2034 -91 
Q 1263 -91 848 271 
Q 434 634 434 1313 
Q 434 1759 690 2068 
Q 947 2378 1403 2484 
z
M 1172 3481 
Q 1172 3119 1398 2916 
Q 1625 2713 2034 2713 
Q 2441 2713 2670 2916 
Q 2900 3119 2900 3481 
Q 2900 3844 2670 4047 
Q 2441 4250 2034 4250 
Q 1625 4250 1398 4047 
Q 1172 3844 1172 3481 
z
" transform="scale(0.015625)"/>
     </defs>
     <use xlink:href="#DejaVuSans-35"/>
     <use xlink:href="#DejaVuSans-2e" x="63.623047"/>
     <use xlink:href="#DejaVuSans-32" x="95.410156"/>
     <use xlink:href="#DejaVuSans-38" x="159.033203"/>
    </g>
   </g>
   <g id="text_31">
    <!-- Stepen naspram -->
    <g transform="translate(417.598437 45.882187)scale(0.1 -0.1)">
     <use xlink:href="#DejaVuSans-53"/>
     <use xlink:href="#DejaVuSans-74" x="63.476562"/>
     <use xlink:href="#DejaVuSans-65" x="102.685547"/>
     <use xlink:href="#DejaVuSans-70" x="164.208984"/>
     <use xlink:href="#DejaVuSans-65" x="227.685547"/>
     <use xlink:href="#DejaVuSans-6e" x="289.208984"/>
     <use xlink:href="#DejaVuSans-20" x="352.587891"/>
     <use xlink:href="#DejaVuSans-6e" x="384.375"/>
     <use xlink:href="#DejaVuSans-61" x="447.753906"/>
     <use xlink:href="#DejaVuSans-73" x="509.033203"/>
     <use xlink:href="#DejaVuSans-70" x="561.132812"/>
     <use xlink:href="#DejaVuSans-72" x="624.609375"/>
     <use xlink:href="#DejaVuSans-61" x="665.722656"/>
     <use xlink:href="#DejaVuSans-6d" x="727.001953"/>
    </g>
    <!-- prof. regiona &gt;=5 (Nsp_iRef) -->
    <g transform="translate(387.057031 57.08)scale(0.1 -0.1)">
     <defs>
      <path id="DejaVuSans-4e" d="M 628 4666 
L 1478 4666 
L 3547 763 
L 3547 4666 
L 4159 4666 
L 4159 0 
L 3309 0 
L 1241 3903 
L 1241 0 
L 628 0 
L 628 4666 
z
" transform="scale(0.015625)"/>
     </defs>
     <use xlink:href="#DejaVuSans-70"/>
     <use xlink:href="#DejaVuSans-72" x="63.476562"/>
     <use xlink:href="#DejaVuSans-6f" x="102.339844"/>
     <use xlink:href="#DejaVuSans-66" x="163.521484"/>
     <use xlink:href="#DejaVuSans-2e" x="191.476562"/>
     <use xlink:href="#DejaVuSans-20" x="223.263672"/>
     <use xlink:href="#DejaVuSans-72" x="255.050781"/>
     <use xlink:href="#DejaVuSans-65" x="293.914062"/>
     <use xlink:href="#DejaVuSans-67" x="355.4375"/>
     <use xlink:href="#DejaVuSans-69" x="418.914062"/>
     <use xlink:href="#DejaVuSans-6f" x="446.697266"/>
     <use xlink:href="#DejaVuSans-6e" x="507.878906"/>
     <use xlink:href="#DejaVuSans-61" x="571.257812"/>
     <use xlink:href="#DejaVuSans-20" x="632.537109"/>
     <use xlink:href="#DejaVuSans-3e" x="664.324219"/>
     <use xlink:href="#DejaVuSans-3d" x="748.113281"/>
     <use xlink:href="#DejaVuSans-35" x="831.902344"/>
     <use xlink:href="#DejaVuSans-20" x="895.525391"/>
     <use xlink:href="#DejaVuSans-28" x="927.3125"/>
     <use xlink:href="#DejaVuSans-4e" x="966.326172"/>
     <use xlink:href="#DejaVuSans-73" x="1041.130859"/>
     <use xlink:href="#DejaVuSans-70" x="1093.230469"/>
     <use xlink:href="#DejaVuSans-5f" x="1156.707031"/>
     <use xlink:href="#DejaVuSans-69" x="1206.707031"/>
     <use xlink:href="#DejaVuSans-52" x="1234.490234"/>
     <use xlink:href="#DejaVuSans-65" x="1299.472656"/>
     <use xlink:href="#DejaVuSans-66" x="1360.996094"/>
     <use xlink:href="#DejaVuSans-29" x="1396.201172"/>
    </g>
   </g>
   <g id="legend_3">
    <g id="patch_31">
     <path d="M 460.382578 145.009375 
L 530.307031 145.009375 
Q 532.007031 145.009375 532.007031 143.309375 
L 532.007031 69.03 
Q 532.007031 67.33 530.307031 67.33 
L 460.382578 67.33 
Q 458.682578 67.33 458.682578 69.03 
L 458.682578 143.309375 
Q 458.682578 145.009375 460.382578 145.009375 
z
" style="fill: #ffffff; opacity: 0.8; stroke: #cccccc; stroke-linejoin: miter"/>
    </g>
    <g id="line2d_43"/>
    <g id="text_32">
     <!-- φ = 1.00000 -->
     <g transform="translate(462.082578 77.233828)scale(0.085 -0.085)">
      <use xlink:href="#DejaVuSansMono-3c6"/>
      <use xlink:href="#DejaVuSansMono-20" x="60.205078"/>
      <use xlink:href="#DejaVuSansMono-3d" x="120.410156"/>
      <use xlink:href="#DejaVuSansMono-20" x="180.615234"/>
      <use xlink:href="#DejaVuSansMono-31" x="240.820312"/>
      <use xlink:href="#DejaVuSansMono-2e" x="301.025391"/>
      <use xlink:href="#DejaVuSansMono-30" x="361.230469"/>
      <use xlink:href="#DejaVuSansMono-30" x="421.435547"/>
      <use xlink:href="#DejaVuSansMono-30" x="481.640625"/>
      <use xlink:href="#DejaVuSansMono-30" x="541.845703"/>
      <use xlink:href="#DejaVuSansMono-30" x="602.050781"/>
     </g>
    </g>
    <g id="line2d_44"/>
    <g id="text_33">
     <!-- ρ[✻] = -0.10 -->
     <g transform="translate(462.082578 89.755391)scale(0.085 -0.085)">
      <use xlink:href="#DejaVuSansMono-3c1"/>
      <use xlink:href="#DejaVuSansMono-5b" x="60.205078"/>
      <use xlink:href="#DejaVuSansMono-273b" x="120.410156"/>
      <use xlink:href="#DejaVuSansMono-5d" x="180.615234"/>
      <use xlink:href="#DejaVuSansMono-20" x="240.820312"/>
      <use xlink:href="#DejaVuSansMono-3d" x="301.025391"/>
      <use xlink:href="#DejaVuSansMono-20" x="361.230469"/>
      <use xlink:href="#DejaVuSansMono-2d" x="421.435547"/>
      <use xlink:href="#DejaVuSansMono-30" x="481.640625"/>
      <use xlink:href="#DejaVuSansMono-2e" x="541.845703"/>
      <use xlink:href="#DejaVuSansMono-31" x="602.050781"/>
      <use xlink:href="#DejaVuSansMono-30" x="662.255859"/>
     </g>
    </g>
    <g id="line2d_45"/>
    <g id="text_34">
     <!-- ρ[←] = -0.08 -->
     <g transform="translate(462.082578 102.276953)scale(0.085 -0.085)">
      <defs>
       <path id="DejaVuSansMono-38" d="M 1925 2216 
Q 1503 2216 1273 1980 
Q 1044 1744 1044 1313 
Q 1044 881 1276 642 
Q 1509 403 1925 403 
Q 2350 403 2579 639 
Q 2809 875 2809 1313 
Q 2809 1741 2576 1978 
Q 2344 2216 1925 2216 
z
M 1375 2478 
Q 972 2581 745 2862 
Q 519 3144 519 3541 
Q 519 4097 897 4423 
Q 1275 4750 1925 4750 
Q 2578 4750 2956 4423 
Q 3334 4097 3334 3541 
Q 3334 3144 3107 2862 
Q 2881 2581 2478 2478 
Q 2947 2375 3195 2062 
Q 3444 1750 3444 1253 
Q 3444 622 3041 265 
Q 2638 -91 1925 -91 
Q 1213 -91 811 264 
Q 409 619 409 1247 
Q 409 1747 657 2061 
Q 906 2375 1375 2478 
z
M 1147 3481 
Q 1147 3106 1347 2909 
Q 1547 2713 1925 2713 
Q 2306 2713 2506 2909 
Q 2706 3106 2706 3481 
Q 2706 3863 2507 4063 
Q 2309 4263 1925 4263 
Q 1547 4263 1347 4061 
Q 1147 3859 1147 3481 
z
" transform="scale(0.015625)"/>
      </defs>
      <use xlink:href="#DejaVuSansMono-3c1"/>
      <use xlink:href="#DejaVuSansMono-5b" x="60.205078"/>
      <use xlink:href="#DejaVuSansMono-2190" x="120.410156"/>
      <use xlink:href="#DejaVuSansMono-5d" x="180.615234"/>
      <use xlink:href="#DejaVuSansMono-20" x="240.820312"/>
      <use xlink:href="#DejaVuSansMono-3d" x="301.025391"/>
      <use xlink:href="#DejaVuSansMono-20" x="361.230469"/>
      <use xlink:href="#DejaVuSansMono-2d" x="421.435547"/>
      <use xlink:href="#DejaVuSansMono-30" x="481.640625"/>
      <use xlink:href="#DejaVuSansMono-2e" x="541.845703"/>
      <use xlink:href="#DejaVuSansMono-30" x="602.050781"/>
      <use xlink:href="#DejaVuSansMono-38" x="662.255859"/>
     </g>
    </g>
    <g id="line2d_46"/>
    <g id="text_35">
     <!-- ρ[→] = 0.15 -->
     <g transform="translate(462.082578 114.798516)scale(0.085 -0.085)">
      <use xlink:href="#DejaVuSansMono-3c1"/>
      <use xlink:href="#DejaVuSansMono-5b" x="60.205078"/>
      <use xlink:href="#DejaVuSansMono-2192" x="120.410156"/>
      <use xlink:href="#DejaVuSansMono-5d" x="180.615234"/>
      <use xlink:href="#DejaVuSansMono-20" x="240.820312"/>
      <use xlink:href="#DejaVuSansMono-3d" x="301.025391"/>
      <use xlink:href="#DejaVuSansMono-20" x="361.230469"/>
      <use xlink:href="#DejaVuSansMono-30" x="421.435547"/>
      <use xlink:href="#DejaVuSansMono-2e" x="481.640625"/>
      <use xlink:href="#DejaVuSansMono-31" x="541.845703"/>
      <use xlink:href="#DejaVuSansMono-35" x="602.050781"/>
     </g>
    </g>
    <g id="line2d_47"/>
    <g id="text_36">
     <!-- ρ[↓] = -0.19* -->
     <g transform="translate(462.082578 127.320078)scale(0.085 -0.085)">
      <defs>
       <path id="DejaVuSansMono-2a" d="M 3334 3897 
L 2216 3291 
L 3334 2681 
L 3156 2375 
L 2106 3009 
L 2106 1831 
L 1747 1831 
L 1747 3009 
L 697 2375 
L 519 2681 
L 1638 3291 
L 519 3897 
L 697 4206 
L 1747 3572 
L 1747 4750 
L 2106 4750 
L 2106 3572 
L 3156 4206 
L 3334 3897 
z
" transform="scale(0.015625)"/>
      </defs>
      <use xlink:href="#DejaVuSansMono-3c1"/>
      <use xlink:href="#DejaVuSansMono-5b" x="60.205078"/>
      <use xlink:href="#DejaVuSansMono-2193" x="120.410156"/>
      <use xlink:href="#DejaVuSansMono-5d" x="180.615234"/>
      <use xlink:href="#DejaVuSansMono-20" x="240.820312"/>
      <use xlink:href="#DejaVuSansMono-3d" x="301.025391"/>
      <use xlink:href="#DejaVuSansMono-20" x="361.230469"/>
      <use xlink:href="#DejaVuSansMono-2d" x="421.435547"/>
      <use xlink:href="#DejaVuSansMono-30" x="481.640625"/>
      <use xlink:href="#DejaVuSansMono-2e" x="541.845703"/>
      <use xlink:href="#DejaVuSansMono-31" x="602.050781"/>
      <use xlink:href="#DejaVuSansMono-39" x="662.255859"/>
      <use xlink:href="#DejaVuSansMono-2a" x="722.460938"/>
     </g>
    </g>
    <g id="line2d_48"/>
    <g id="text_37">
     <!-- ρ[↑] = -0.16 -->
     <g transform="translate(462.082578 139.841641)scale(0.085 -0.085)">
      <defs>
       <path id="DejaVuSansMono-36" d="M 3097 4563 
L 3097 3981 
Q 2900 4097 2678 4158 
Q 2456 4219 2216 4219 
Q 1616 4219 1306 3767 
Q 997 3316 997 2438 
Q 1147 2750 1412 2917 
Q 1678 3084 2022 3084 
Q 2697 3084 3067 2670 
Q 3438 2256 3438 1497 
Q 3438 741 3056 325 
Q 2675 -91 1984 -91 
Q 1172 -91 794 492 
Q 416 1075 416 2328 
Q 416 3509 870 4129 
Q 1325 4750 2188 4750 
Q 2419 4750 2650 4701 
Q 2881 4653 3097 4563 
z
M 1972 2591 
Q 1569 2591 1337 2300 
Q 1106 2009 1106 1497 
Q 1106 984 1337 693 
Q 1569 403 1972 403 
Q 2391 403 2603 679 
Q 2816 956 2816 1497 
Q 2816 2041 2603 2316 
Q 2391 2591 1972 2591 
z
" transform="scale(0.015625)"/>
      </defs>
      <use xlink:href="#DejaVuSansMono-3c1"/>
      <use xlink:href="#DejaVuSansMono-5b" x="60.205078"/>
      <use xlink:href="#DejaVuSansMono-2191" x="120.410156"/>
      <use xlink:href="#DejaVuSansMono-5d" x="180.615234"/>
      <use xlink:href="#DejaVuSansMono-20" x="240.820312"/>
      <use xlink:href="#DejaVuSansMono-3d" x="301.025391"/>
      <use xlink:href="#DejaVuSansMono-20" x="361.230469"/>
      <use xlink:href="#DejaVuSansMono-2d" x="421.435547"/>
      <use xlink:href="#DejaVuSansMono-30" x="481.640625"/>
      <use xlink:href="#DejaVuSansMono-2e" x="541.845703"/>
      <use xlink:href="#DejaVuSansMono-31" x="602.050781"/>
      <use xlink:href="#DejaVuSansMono-36" x="662.255859"/>
     </g>
    </g>
   </g>
  </g>
  <g id="axes_4">
   <g id="patch_32">
    <path d="M 550.557031 208.08 
L 705.432031 208.08 
L 705.432031 63.08 
L 550.557031 63.08 
z
" style="fill: #ffffff"/>
   </g>
   <g id="patch_33">
    <path d="M 550.557031 201.489091 
L 597.465999 201.489091 
L 597.465999 173.737895 
L 550.557031 173.737895 
z
" clip-path="url(#paf0e5f86a7)" style="fill: #3cb371; opacity: 0.8"/>
   </g>
   <g id="patch_34">
    <path d="M 550.557031 166.800096 
L 585.199953 166.800096 
L 585.199953 139.0489 
L 550.557031 139.0489 
z
" clip-path="url(#paf0e5f86a7)" style="fill: #3cb371; opacity: 0.8"/>
   </g>
   <g id="patch_35">
    <path d="M 550.557031 132.1111 
L 565.308938 132.1111 
L 565.308938 104.359904 
L 550.557031 104.359904 
z
" clip-path="url(#paf0e5f86a7)" style="fill: #3cb371; opacity: 0.8"/>
   </g>
   <g id="patch_36">
    <path d="M 550.557031 97.422105 
L 564.237298 97.422105 
L 564.237298 69.670909 
L 550.557031 69.670909 
z
" clip-path="url(#paf0e5f86a7)" style="fill: #3cb371; opacity: 0.8"/>
   </g>
   <g id="matplotlib.axis_7">
    <g id="xtick_13"/>
    <g id="xtick_14"/>
    <g id="xtick_15"/>
    <g id="xtick_16"/>
    <g id="xtick_17"/>
   </g>
   <g id="matplotlib.axis_8">
    <g id="ytick_13">
     <g id="line2d_49">
      <g>
       <use xlink:href="#mc96adf423a" x="550.557031" y="187.613493" style="stroke: #000000; stroke-width: 0.8"/>
      </g>
     </g>
    </g>
    <g id="ytick_14">
     <g id="line2d_50">
      <g>
       <use xlink:href="#mc96adf423a" x="550.557031" y="152.924498" style="stroke: #000000; stroke-width: 0.8"/>
      </g>
     </g>
    </g>
    <g id="ytick_15">
     <g id="line2d_51">
      <g>
       <use xlink:href="#mc96adf423a" x="550.557031" y="118.235502" style="stroke: #000000; stroke-width: 0.8"/>
      </g>
     </g>
    </g>
    <g id="ytick_16">
     <g id="line2d_52">
      <g>
       <use xlink:href="#mc96adf423a" x="550.557031" y="83.546507" style="stroke: #000000; stroke-width: 0.8"/>
      </g>
     </g>
    </g>
   </g>
   <g id="LineCollection_4">
    <path d="M 583.317901 187.613493 
L 611.614096 187.613493 
" clip-path="url(#paf0e5f86a7)" style="fill: none; stroke: #000000; stroke-width: 1.5"/>
    <path d="M 574.433293 152.924498 
L 595.966613 152.924498 
" clip-path="url(#paf0e5f86a7)" style="fill: none; stroke: #000000; stroke-width: 1.5"/>
    <path d="M 560.933272 118.235502 
L 569.684604 118.235502 
" clip-path="url(#paf0e5f86a7)" style="fill: none; stroke: #000000; stroke-width: 1.5"/>
    <path d="M 559.477475 83.546507 
L 568.997121 83.546507 
" clip-path="url(#paf0e5f86a7)" style="fill: none; stroke: #000000; stroke-width: 1.5"/>
   </g>
   <g id="line2d_53"/>
   <g id="line2d_54"/>
   <g id="line2d_55"/>
   <g id="line2d_56"/>
   <g id="line2d_57"/>
   <g id="line2d_58"/>
   <g id="patch_37">
    <path d="M 550.557031 208.08 
L 550.557031 63.08 
" style="fill: none; stroke: #000000; stroke-width: 0.8; stroke-linejoin: miter; stroke-linecap: square"/>
   </g>
   <g id="patch_38">
    <path d="M 705.432031 208.08 
L 705.432031 63.08 
" style="fill: none; stroke: #000000; stroke-width: 0.8; stroke-linejoin: miter; stroke-linecap: square"/>
   </g>
   <g id="patch_39">
    <path d="M 550.557031 208.08 
L 705.432031 208.08 
" style="fill: none; stroke: #000000; stroke-width: 0.8; stroke-linejoin: miter; stroke-linecap: square"/>
   </g>
   <g id="patch_40">
    <path d="M 550.557031 63.08 
L 705.432031 63.08 
" style="fill: none; stroke: #000000; stroke-width: 0.8; stroke-linejoin: miter; stroke-linecap: square"/>
   </g>
   <g id="text_38">
    <!-- 14.97 -->
    <g transform="translate(611.614096 189.958962)scale(0.085 -0.085)">
     <use xlink:href="#DejaVuSans-31"/>
     <use xlink:href="#DejaVuSans-34" x="63.623047"/>
     <use xlink:href="#DejaVuSans-2e" x="127.246094"/>
     <use xlink:href="#DejaVuSans-39" x="159.033203"/>
     <use xlink:href="#DejaVuSans-37" x="222.65625"/>
    </g>
   </g>
   <g id="text_39">
    <!-- 11.06 -->
    <g transform="translate(595.966613 155.269966)scale(0.085 -0.085)">
     <use xlink:href="#DejaVuSans-31"/>
     <use xlink:href="#DejaVuSans-31" x="63.623047"/>
     <use xlink:href="#DejaVuSans-2e" x="127.246094"/>
     <use xlink:href="#DejaVuSans-30" x="159.033203"/>
     <use xlink:href="#DejaVuSans-36" x="222.65625"/>
    </g>
   </g>
   <g id="text_40">
    <!-- 4.71 -->
    <g transform="translate(569.684604 120.580971)scale(0.085 -0.085)">
     <use xlink:href="#DejaVuSans-34"/>
     <use xlink:href="#DejaVuSans-2e" x="63.623047"/>
     <use xlink:href="#DejaVuSans-37" x="95.410156"/>
     <use xlink:href="#DejaVuSans-31" x="159.033203"/>
    </g>
   </g>
   <g id="text_41">
    <!-- 4.37 -->
    <g transform="translate(568.997121 85.891976)scale(0.085 -0.085)">
     <use xlink:href="#DejaVuSans-34"/>
     <use xlink:href="#DejaVuSans-2e" x="63.623047"/>
     <use xlink:href="#DejaVuSans-33" x="95.410156"/>
     <use xlink:href="#DejaVuSans-37" x="159.033203"/>
    </g>
   </g>
   <g id="text_42">
    <!-- Stepen naspram -->
    <g transform="translate(586.773437 45.882187)scale(0.1 -0.1)">
     <use xlink:href="#DejaVuSans-53"/>
     <use xlink:href="#DejaVuSans-74" x="63.476562"/>
     <use xlink:href="#DejaVuSans-65" x="102.685547"/>
     <use xlink:href="#DejaVuSans-70" x="164.208984"/>
     <use xlink:href="#DejaVuSans-65" x="227.685547"/>
     <use xlink:href="#DejaVuSans-6e" x="289.208984"/>
     <use xlink:href="#DejaVuSans-20" x="352.587891"/>
     <use xlink:href="#DejaVuSans-6e" x="384.375"/>
     <use xlink:href="#DejaVuSans-61" x="447.753906"/>
     <use xlink:href="#DejaVuSans-73" x="509.033203"/>
     <use xlink:href="#DejaVuSans-70" x="561.132812"/>
     <use xlink:href="#DejaVuSans-72" x="624.609375"/>
     <use xlink:href="#DejaVuSans-61" x="665.722656"/>
     <use xlink:href="#DejaVuSans-6d" x="727.001953"/>
    </g>
    <!-- prof. regiona &gt;=5 (SARS2_iRef) -->
    <g transform="translate(549.233594 57.08)scale(0.1 -0.1)">
     <use xlink:href="#DejaVuSans-70"/>
     <use xlink:href="#DejaVuSans-72" x="63.476562"/>
     <use xlink:href="#DejaVuSans-6f" x="102.339844"/>
     <use xlink:href="#DejaVuSans-66" x="163.521484"/>
     <use xlink:href="#DejaVuSans-2e" x="191.476562"/>
     <use xlink:href="#DejaVuSans-20" x="223.263672"/>
     <use xlink:href="#DejaVuSans-72" x="255.050781"/>
     <use xlink:href="#DejaVuSans-65" x="293.914062"/>
     <use xlink:href="#DejaVuSans-67" x="355.4375"/>
     <use xlink:href="#DejaVuSans-69" x="418.914062"/>
     <use xlink:href="#DejaVuSans-6f" x="446.697266"/>
     <use xlink:href="#DejaVuSans-6e" x="507.878906"/>
     <use xlink:href="#DejaVuSans-61" x="571.257812"/>
     <use xlink:href="#DejaVuSans-20" x="632.537109"/>
     <use xlink:href="#DejaVuSans-3e" x="664.324219"/>
     <use xlink:href="#DejaVuSans-3d" x="748.113281"/>
     <use xlink:href="#DejaVuSans-35" x="831.902344"/>
     <use xlink:href="#DejaVuSans-20" x="895.525391"/>
     <use xlink:href="#DejaVuSans-28" x="927.3125"/>
     <use xlink:href="#DejaVuSans-53" x="966.326172"/>
     <use xlink:href="#DejaVuSans-41" x="1031.677734"/>
     <use xlink:href="#DejaVuSans-52" x="1100.085938"/>
     <use xlink:href="#DejaVuSans-53" x="1169.568359"/>
     <use xlink:href="#DejaVuSans-32" x="1233.044922"/>
     <use xlink:href="#DejaVuSans-5f" x="1296.667969"/>
     <use xlink:href="#DejaVuSans-69" x="1346.667969"/>
     <use xlink:href="#DejaVuSans-52" x="1374.451172"/>
     <use xlink:href="#DejaVuSans-65" x="1439.433594"/>
     <use xlink:href="#DejaVuSans-66" x="1500.957031"/>
     <use xlink:href="#DejaVuSans-29" x="1536.162109"/>
    </g>
   </g>
   <g id="legend_4">
    <g id="patch_41">
     <path d="M 639.792109 145.009375 
L 699.482031 145.009375 
Q 701.182031 145.009375 701.182031 143.309375 
L 701.182031 69.03 
Q 701.182031 67.33 699.482031 67.33 
L 639.792109 67.33 
Q 638.092109 67.33 638.092109 69.03 
L 638.092109 143.309375 
Q 638.092109 145.009375 639.792109 145.009375 
z
" style="fill: #ffffff; opacity: 0.8; stroke: #cccccc; stroke-linejoin: miter"/>
    </g>
    <g id="line2d_59"/>
    <g id="text_43">
     <!-- φ = 0.94385 -->
     <g transform="translate(641.492109 77.233828)scale(0.085 -0.085)">
      <defs>
       <path id="DejaVuSansMono-34" d="M 2297 4091 
L 825 1625 
L 2297 1625 
L 2297 4091 
z
M 2194 4666 
L 2925 4666 
L 2925 1625 
L 3547 1625 
L 3547 1113 
L 2925 1113 
L 2925 0 
L 2297 0 
L 2297 1113 
L 319 1113 
L 319 1709 
L 2194 4666 
z
" transform="scale(0.015625)"/>
      </defs>
      <use xlink:href="#DejaVuSansMono-3c6"/>
      <use xlink:href="#DejaVuSansMono-20" x="60.205078"/>
      <use xlink:href="#DejaVuSansMono-3d" x="120.410156"/>
      <use xlink:href="#DejaVuSansMono-20" x="180.615234"/>
      <use xlink:href="#DejaVuSansMono-30" x="240.820312"/>
      <use xlink:href="#DejaVuSansMono-2e" x="301.025391"/>
      <use xlink:href="#DejaVuSansMono-39" x="361.230469"/>
      <use xlink:href="#DejaVuSansMono-34" x="421.435547"/>
      <use xlink:href="#DejaVuSansMono-33" x="481.640625"/>
      <use xlink:href="#DejaVuSansMono-38" x="541.845703"/>
      <use xlink:href="#DejaVuSansMono-35" x="602.050781"/>
     </g>
    </g>
    <g id="line2d_60"/>
    <g id="text_44">
     <!-- ρ[✻] = 0.04 -->
     <g transform="translate(641.492109 89.755391)scale(0.085 -0.085)">
      <use xlink:href="#DejaVuSansMono-3c1"/>
      <use xlink:href="#DejaVuSansMono-5b" x="60.205078"/>
      <use xlink:href="#DejaVuSansMono-273b" x="120.410156"/>
      <use xlink:href="#DejaVuSansMono-5d" x="180.615234"/>
      <use xlink:href="#DejaVuSansMono-20" x="240.820312"/>
      <use xlink:href="#DejaVuSansMono-3d" x="301.025391"/>
      <use xlink:href="#DejaVuSansMono-20" x="361.230469"/>
      <use xlink:href="#DejaVuSansMono-30" x="421.435547"/>
      <use xlink:href="#DejaVuSansMono-2e" x="481.640625"/>
      <use xlink:href="#DejaVuSansMono-30" x="541.845703"/>
      <use xlink:href="#DejaVuSansMono-34" x="602.050781"/>
     </g>
    </g>
    <g id="line2d_61"/>
    <g id="text_45">
     <!-- ρ[←] = 0.03 -->
     <g transform="translate(641.492109 102.276953)scale(0.085 -0.085)">
      <use xlink:href="#DejaVuSansMono-3c1"/>
      <use xlink:href="#DejaVuSansMono-5b" x="60.205078"/>
      <use xlink:href="#DejaVuSansMono-2190" x="120.410156"/>
      <use xlink:href="#DejaVuSansMono-5d" x="180.615234"/>
      <use xlink:href="#DejaVuSansMono-20" x="240.820312"/>
      <use xlink:href="#DejaVuSansMono-3d" x="301.025391"/>
      <use xlink:href="#DejaVuSansMono-20" x="361.230469"/>
      <use xlink:href="#DejaVuSansMono-30" x="421.435547"/>
      <use xlink:href="#DejaVuSansMono-2e" x="481.640625"/>
      <use xlink:href="#DejaVuSansMono-30" x="541.845703"/>
      <use xlink:href="#DejaVuSansMono-33" x="602.050781"/>
     </g>
    </g>
    <g id="line2d_62"/>
    <g id="text_46">
     <!-- ρ[→] = 0.27 -->
     <g transform="translate(641.492109 114.798516)scale(0.085 -0.085)">
      <defs>
       <path id="DejaVuSansMono-37" d="M 434 4666 
L 3372 4666 
L 3372 4397 
L 1703 0 
L 1044 0 
L 2669 4134 
L 434 4134 
L 434 4666 
z
" transform="scale(0.015625)"/>
      </defs>
      <use xlink:href="#DejaVuSansMono-3c1"/>
      <use xlink:href="#DejaVuSansMono-5b" x="60.205078"/>
      <use xlink:href="#DejaVuSansMono-2192" x="120.410156"/>
      <use xlink:href="#DejaVuSansMono-5d" x="180.615234"/>
      <use xlink:href="#DejaVuSansMono-20" x="240.820312"/>
      <use xlink:href="#DejaVuSansMono-3d" x="301.025391"/>
      <use xlink:href="#DejaVuSansMono-20" x="361.230469"/>
      <use xlink:href="#DejaVuSansMono-30" x="421.435547"/>
      <use xlink:href="#DejaVuSansMono-2e" x="481.640625"/>
      <use xlink:href="#DejaVuSansMono-32" x="541.845703"/>
      <use xlink:href="#DejaVuSansMono-37" x="602.050781"/>
     </g>
    </g>
    <g id="line2d_63"/>
    <g id="text_47">
     <!-- ρ[↓] = 0.00 -->
     <g transform="translate(641.492109 127.320078)scale(0.085 -0.085)">
      <use xlink:href="#DejaVuSansMono-3c1"/>
      <use xlink:href="#DejaVuSansMono-5b" x="60.205078"/>
      <use xlink:href="#DejaVuSansMono-2193" x="120.410156"/>
      <use xlink:href="#DejaVuSansMono-5d" x="180.615234"/>
      <use xlink:href="#DejaVuSansMono-20" x="240.820312"/>
      <use xlink:href="#DejaVuSansMono-3d" x="301.025391"/>
      <use xlink:href="#DejaVuSansMono-20" x="361.230469"/>
      <use xlink:href="#DejaVuSansMono-30" x="421.435547"/>
      <use xlink:href="#DejaVuSansMono-2e" x="481.640625"/>
      <use xlink:href="#DejaVuSansMono-30" x="541.845703"/>
      <use xlink:href="#DejaVuSansMono-30" x="602.050781"/>
     </g>
    </g>
    <g id="line2d_64"/>
    <g id="text_48">
     <!-- ρ[↑] = 0.03 -->
     <g transform="translate(641.492109 139.841641)scale(0.085 -0.085)">
      <use xlink:href="#DejaVuSansMono-3c1"/>
      <use xlink:href="#DejaVuSansMono-5b" x="60.205078"/>
      <use xlink:href="#DejaVuSansMono-2191" x="120.410156"/>
      <use xlink:href="#DejaVuSansMono-5d" x="180.615234"/>
      <use xlink:href="#DejaVuSansMono-20" x="240.820312"/>
      <use xlink:href="#DejaVuSansMono-3d" x="301.025391"/>
      <use xlink:href="#DejaVuSansMono-20" x="361.230469"/>
      <use xlink:href="#DejaVuSansMono-30" x="421.435547"/>
      <use xlink:href="#DejaVuSansMono-2e" x="481.640625"/>
      <use xlink:href="#DejaVuSansMono-30" x="541.845703"/>
      <use xlink:href="#DejaVuSansMono-33" x="602.050781"/>
     </g>
    </g>
   </g>
  </g>
  <g id="text_49">
   <!-- Profilni neuređeni regioni – proseci po podeli -->
   <g transform="translate(223.038594 16.318125)scale(0.12 -0.12)">
    <defs>
     <path id="DejaVuSans-50" d="M 1259 4147 
L 1259 2394 
L 2053 2394 
Q 2494 2394 2734 2622 
Q 2975 2850 2975 3272 
Q 2975 3691 2734 3919 
Q 2494 4147 2053 4147 
L 1259 4147 
z
M 628 4666 
L 2053 4666 
Q 2838 4666 3239 4311 
Q 3641 3956 3641 3272 
Q 3641 2581 3239 2228 
Q 2838 1875 2053 1875 
L 1259 1875 
L 1259 0 
L 628 0 
L 628 4666 
z
" transform="scale(0.015625)"/>
     <path id="DejaVuSans-6c" d="M 603 4863 
L 1178 4863 
L 1178 0 
L 603 0 
L 603 4863 
z
" transform="scale(0.015625)"/>
     <path id="DejaVuSans-75" d="M 544 1381 
L 544 3500 
L 1119 3500 
L 1119 1403 
Q 1119 906 1312 657 
Q 1506 409 1894 409 
Q 2359 409 2629 706 
Q 2900 1003 2900 1516 
L 2900 3500 
L 3475 3500 
L 3475 0 
L 2900 0 
L 2900 538 
Q 2691 219 2414 64 
Q 2138 -91 1772 -91 
Q 1169 -91 856 284 
Q 544 659 544 1381 
z
M 1991 3584 
L 1991 3584 
z
" transform="scale(0.015625)"/>
     <path id="DejaVuSans-111" d="M 2906 2969 
L 2906 4013 
L 1888 4013 
L 1888 4403 
L 2906 4403 
L 2906 4863 
L 3481 4863 
L 3481 4403 
L 3963 4403 
L 3963 4013 
L 3481 4013 
L 3481 0 
L 2906 0 
L 2906 525 
Q 2725 213 2448 61 
Q 2172 -91 1784 -91 
Q 1150 -91 751 415 
Q 353 922 353 1747 
Q 353 2572 751 3078 
Q 1150 3584 1784 3584 
Q 2172 3584 2448 3432 
Q 2725 3281 2906 2969 
z
M 947 1747 
Q 947 1113 1208 752 
Q 1469 391 1925 391 
Q 2381 391 2643 752 
Q 2906 1113 2906 1747 
Q 2906 2381 2643 2742 
Q 2381 3103 1925 3103 
Q 1469 3103 1208 2742 
Q 947 2381 947 1747 
z
" transform="scale(0.015625)"/>
     <path id="DejaVuSans-2013" d="M 313 1978 
L 2888 1978 
L 2888 1528 
L 313 1528 
L 313 1978 
z
" transform="scale(0.015625)"/>
     <path id="DejaVuSans-64" d="M 2906 2969 
L 2906 4863 
L 3481 4863 
L 3481 0 
L 2906 0 
L 2906 525 
Q 2725 213 2448 61 
Q 2172 -91 1784 -91 
Q 1150 -91 751 415 
Q 353 922 353 1747 
Q 353 2572 751 3078 
Q 1150 3584 1784 3584 
Q 2172 3584 2448 3432 
Q 2725 3281 2906 2969 
z
M 947 1747 
Q 947 1113 1208 752 
Q 1469 391 1925 391 
Q 2381 391 2643 752 
Q 2906 1113 2906 1747 
Q 2906 2381 2643 2742 
Q 2381 3103 1925 3103 
Q 1469 3103 1208 2742 
Q 947 2381 947 1747 
z
" transform="scale(0.015625)"/>
    </defs>
    <use xlink:href="#DejaVuSans-50"/>
    <use xlink:href="#DejaVuSans-72" x="58.552734"/>
    <use xlink:href="#DejaVuSans-6f" x="97.416016"/>
    <use xlink:href="#DejaVuSans-66" x="158.597656"/>
    <use xlink:href="#DejaVuSans-69" x="193.802734"/>
    <use xlink:href="#DejaVuSans-6c" x="221.585938"/>
    <use xlink:href="#DejaVuSans-6e" x="249.369141"/>
    <use xlink:href="#DejaVuSans-69" x="312.748047"/>
    <use xlink:href="#DejaVuSans-20" x="340.53125"/>
    <use xlink:href="#DejaVuSans-6e" x="372.318359"/>
    <use xlink:href="#DejaVuSans-65" x="435.697266"/>
    <use xlink:href="#DejaVuSans-75" x="497.220703"/>
    <use xlink:href="#DejaVuSans-72" x="560.599609"/>
    <use xlink:href="#DejaVuSans-65" x="599.462891"/>
    <use xlink:href="#DejaVuSans-111" x="660.986328"/>
    <use xlink:href="#DejaVuSans-65" x="724.462891"/>
    <use xlink:href="#DejaVuSans-6e" x="785.986328"/>
    <use xlink:href="#DejaVuSans-69" x="849.365234"/>
    <use xlink:href="#DejaVuSans-20" x="877.148438"/>
    <use xlink:href="#DejaVuSans-72" x="908.935547"/>
    <use xlink:href="#DejaVuSans-65" x="947.798828"/>
    <use xlink:href="#DejaVuSans-67" x="1009.322266"/>
    <use xlink:href="#DejaVuSans-69" x="1072.798828"/>
    <use xlink:href="#DejaVuSans-6f" x="1100.582031"/>
    <use xlink:href="#DejaVuSans-6e" x="1161.763672"/>
    <use xlink:href="#DejaVuSans-69" x="1225.142578"/>
    <use xlink:href="#DejaVuSans-20" x="1252.925781"/>
    <use xlink:href="#DejaVuSans-2013" x="1284.712891"/>
    <use xlink:href="#DejaVuSans-20" x="1334.712891"/>
    <use xlink:href="#DejaVuSans-70" x="1366.5"/>
    <use xlink:href="#DejaVuSans-72" x="1429.976562"/>
    <use xlink:href="#DejaVuSans-6f" x="1468.839844"/>
    <use xlink:href="#DejaVuSans-73" x="1530.021484"/>
    <use xlink:href="#DejaVuSans-65" x="1582.121094"/>
    <use xlink:href="#DejaVuSans-63" x="1643.644531"/>
    <use xlink:href="#DejaVuSans-69" x="1698.625"/>
    <use xlink:href="#DejaVuSans-20" x="1726.408203"/>
    <use xlink:href="#DejaVuSans-70" x="1758.195312"/>
    <use xlink:href="#DejaVuSans-6f" x="1821.671875"/>
    <use xlink:href="#DejaVuSans-20" x="1882.853516"/>
    <use xlink:href="#DejaVuSans-70" x="1914.640625"/>
    <use xlink:href="#DejaVuSans-6f" x="1978.117188"/>
    <use xlink:href="#DejaVuSans-64" x="2039.298828"/>
    <use xlink:href="#DejaVuSans-65" x="2102.775391"/>
    <use xlink:href="#DejaVuSans-6c" x="2164.298828"/>
    <use xlink:href="#DejaVuSans-69" x="2192.082031"/>
   </g>
  </g>
 </g>
 <defs>
  <clipPath id="p04dc480222">
   <rect x="43.032031" y="63.08" width="154.875" height="145"/>
  </clipPath>
  <clipPath id="p1234d7dfa2">
   <rect x="212.207031" y="63.08" width="154.875" height="145"/>
  </clipPath>
  <clipPath id="p673206a2a3">
   <rect x="381.382031" y="63.08" width="154.875" height="145"/>
  </clipPath>
  <clipPath id="paf0e5f86a7">
   <rect x="550.557031" y="63.08" width="154.875" height="145"/>
  </clipPath>
 </defs>
</svg>
